<svg enable-background="new 0 0 300 300" viewBox="0 0 300 300" xmlns="http://www.w3.org/2000/svg" xmlns:xlink="http://www.w3.org/1999/xlink"><radialGradient id="a" cx="-253.5156" cy="-134.3831" gradientTransform="matrix(1.7603 0 0 1 42.7323 0)" gradientUnits="userSpaceOnUse" r="49.5749"><stop offset="0" stop-color="#75f8d2"/><stop offset=".4214" stop-color="#4eede8"/><stop offset=".7852" stop-color="#34e6f6"/><stop offset="1" stop-color="#2ae3fc"/></radialGradient><linearGradient id="b" gradientUnits="userSpaceOnUse" x1="-596.2263" x2="-559.89" y1="-133.13" y2="-133.13"><stop offset="0" stop-color="#6b3bf3"/><stop offset=".3176" stop-color="#0063e9"/><stop offset="1" stop-color="#16cdc5"/></linearGradient><path d="m-1010.5-50h749.4v500h-749.4z" fill="#f6f6f6"/><path d="m-962 278.7 17.3-18 16.9 18" fill="none" stroke="#1d1d1b" stroke-miterlimit="10" stroke-width="2"/><path d="m-957.1 283.3v13.9h25.2v-13.9" fill="none" stroke="#1d1d1b" stroke-miterlimit="10" stroke-width="2"/><path d="m-986.7 259.3v39" fill="none" stroke="#1d1d1b" stroke-miterlimit="10" stroke-width="2"/><path d="m-967.3 278.8h-38.9" fill="none" stroke="#1d1d1b" stroke-miterlimit="10" stroke-width="2"/><circle cx="-823.2" cy="292" fill="#1d1d1b" r="5.6" stroke="#1d1d1b" stroke-miterlimit="10" stroke-width="2"/><circle cx="-823.2" cy="266.8" fill="#1d1d1b" r="5.6" stroke="#1d1d1b" stroke-miterlimit="10" stroke-width="2"/><path d="m-840.6 279.3c0 3.1-2.5 5.6-5.6 5.6s-5.6-2.5-5.6-5.6 2.5-5.6 5.6-5.6 5.6 2.5 5.6 5.6z" fill="#1d1d1b" stroke="#1d1d1b" stroke-miterlimit="10" stroke-width="2"/><path d="m-841.5 276.4 12.9-7" fill="none" stroke="#1d1d1b" stroke-miterlimit="10" stroke-width="2"/><path d="m-840.6 282.8 12.5 6.5" fill="none" stroke="#1d1d1b" stroke-miterlimit="10" stroke-width="2"/><path d="m-781.4 266.3-2.6 3h7" fill="#1d1d1b"/><path d="m-777.5 269.3h1.6v-9l-5.7 6.3" fill="#1d1d1b"/><path d="m-780.4 265.6c-2.2-1.3-4.6-2.1-7.3-2.3-8-.5-14.9 4.8-16.9 12.2 2.3-7 9.1-11.9 16.8-11.4 2.5.2 4.8.9 6.9 2" fill="#1d1d1b"/><path d="m-780.9 266.4c-2-1.3-4.3-2-6.7-2.3-2.4-.2-4.8.1-7.1 1-2.2.9-4.3 2.3-5.9 4.1-1.7 1.8-2.8 4-3.5 6.4l-.9-.3c.8-2.3 2.1-4.5 3.9-6.3.8-.9 1.8-1.7 2.8-2.4s2.1-1.3 3.3-1.7c2.3-.9 4.8-1.2 7.2-1s4.8.9 6.9 2.1c-2.1-1.1-4.5-1.8-6.9-1.9s-4.8.3-7 1.3c-1.1.4-2.1 1.1-3.1 1.7-.9.7-1.9 1.5-2.7 2.4-1.6 1.7-2.8 3.9-3.5 6.1l-.9-.3c.6-2.5 1.8-4.9 3.5-6.9s3.9-3.6 6.3-4.7c2.4-1 5.1-1.5 7.8-1.4s5.3.9 7.6 2.3z" fill="#1d1d1b"/><path d="m-794.9 293.5 2.6-2.9h-7" fill="#1d1d1b"/><path d="m-798.8 290.6h-1.6v9l5.7-6.4" fill="#1d1d1b"/><path d="m-795.9 294.2c2.2 1.3 4.6 2.1 7.3 2.3 8 .5 14.9-4.8 16.9-12.2-2.3 7-9.1 11.9-16.8 11.4-2.5-.2-4.8-.9-6.9-2" fill="#1d1d1b"/><path d="m-795.4 293.4c2 1.3 4.3 2 6.7 2.3 2.4.2 4.8-.1 7.1-1 2.2-.9 4.3-2.3 5.9-4.1 1.7-1.8 2.8-4 3.5-6.4l.9.3c-.8 2.3-2.1 4.5-3.9 6.3-.8.9-1.8 1.7-2.8 2.4s-2.1 1.3-3.3 1.7c-2.3.9-4.8 1.2-7.2 1s-4.8-.9-6.9-2.1c2.1 1.1 4.5 1.8 6.9 1.9s4.8-.3 7-1.3c1.1-.4 2.1-1.1 3.1-1.7.9-.7 1.9-1.5 2.7-2.4 1.6-1.7 2.8-3.9 3.5-6.1l.9.3c-.6 2.5-1.8 4.9-3.5 6.9s-3.9 3.6-6.3 4.7c-2.4 1-5.1 1.5-7.8 1.4s-5.3-.9-7.6-2.3z" fill="#1d1d1b"/><path d="m-296.2 357.4h-47.7c-2.2 0-3.9-1.8-3.9-3.9v-30.9c0-2.2 1.8-3.9 3.9-3.9h47.7c2.2 0 3.9 1.8 3.9 3.9v30.9c0 2.1-1.7 3.9-3.9 3.9z" fill="#fff"/><path d="m-331.2 318.1.8-1.6c.4-.8.6-1.6.8-2.5.5-2.6 2.8-4.5 5.5-4.5h8c2.8 0 5.1 2 5.5 4.6.1.8.3 1.5.7 2.2l1.1 2" fill="#fff"/><path d="m-331.4 319.8 1.2-2c.4-.8.6-1.8.8-2.7.5-2.8 2.8-4.9 5.5-4.9h7.9c2.8 0 5 2.2 5.5 5.1.1.8.3 1.7.7 2.4l1.1 2.2" fill="#fff"/><path d="m-315.6 328.3-1.9 2.1h5" fill="#1d1d1b"/><path d="m-312.8 330.4h1.2v-6.5l-4.2 4.6" fill="#1d1d1b"/><path d="m-314.9 327.8c-1.6-.9-3.3-1.5-5.3-1.6-5.7-.4-10.8 3.4-12.2 8.8 1.6-5.1 6.6-8.6 12.1-8.2 1.8.1 3.5.6 5 1.4" fill="#1d1d1b"/><path d="m-315.4 328.6c-1.4-.9-3-1.5-4.7-1.6-1.7-.2-3.4.1-5 .7s-3.1 1.6-4.2 2.9c-1.2 1.3-2 2.8-2.5 4.5l-.9-.3c.6-1.7 1.6-3.3 2.9-4.6s2.8-2.3 4.5-2.9 3.5-.9 5.2-.7c1.8.1 3.5.7 5 1.6-1.6-.8-3.3-1.3-5-1.3s-3.5.2-5 .9c-1.6.7-3 1.7-4.1 3s-2 2.8-2.5 4.4l-.9-.3c.5-1.8 1.3-3.6 2.5-5.1s2.8-2.7 4.6-3.4c1.8-.8 3.7-1.1 5.7-1s3.9.7 5.6 1.6z" fill="#1d1d1b"/><path d="m-325.4 347.9 1.9-2.1h-5" fill="#1d1d1b"/><path d="m-328.2 345.8h-1.1v6.5l4.1-4.6" fill="#1d1d1b"/><path d="m-326.1 348.4c1.6.9 3.3 1.5 5.3 1.6 5.7.4 10.8-3.4 12.2-8.8-1.6 5.1-6.6 8.6-12.1 8.2-1.8-.1-3.5-.6-5-1.4" fill="#1d1d1b"/><path d="m-325.6 347.6c1.4.9 3 1.5 4.7 1.6 1.7.2 3.4-.1 5-.7s3.1-1.6 4.2-2.9c1.2-1.3 2-2.8 2.5-4.5l.9.3c-.6 1.7-1.6 3.3-2.9 4.6s-2.8 2.3-4.5 2.9-3.5.9-5.2.7c-1.8-.1-3.5-.7-5-1.6 1.6.8 3.3 1.3 5 1.3s3.5-.2 5-.9c1.6-.7 3-1.7 4.1-3s2-2.8 2.5-4.4l.9.3c-.5 1.8-1.3 3.6-2.5 5.1s-2.8 2.7-4.6 3.4c-1.8.8-3.7 1.1-5.7 1s-3.9-.7-5.6-1.6z" fill="#1d1d1b"/><path d="m-873.6 297.8c-3.1 0-6.1-1.3-8.3-3.6-2.3.6-4.9.9-7.5.9-6.7 0-12.4-2-16.5-5.6-1.8-1.7-3.2-3.6-4.2-5.9-.9-2.1-1.4-4.4-1.4-6.7 0-4.8 2-9.3 5.6-12.6 4-3.7 9.7-5.6 16.5-5.6 5.4 0 10.3 1.5 14.3 4.4 3.6 2.6 6.3 6.3 7.4 10.3.9 3.3.8 6.8-.4 9.8-1.2 3.1-3.5 5.8-6.6 7.8.2 1.7.9 3.2 2.1 4.4l2.2 2.2h-3.2zm-15.8-36.9c-6.3 0-11.5 1.8-15.1 5.1-3.2 2.9-4.9 6.8-4.9 11 0 7.7 6.3 16.1 20 16.1 2.6 0 5.4-.4 7.7-1.1l.8-.3.6.7c1.1 1.3 2.6 2.3 4.2 2.9-.7-1.3-1-2.8-1.1-4.4v-.8l.7-.4c6-3.6 8.5-9.4 6.8-15.6-1.8-6.6-8.6-13.2-19.7-13.2z" fill="#1d1d1b"/><path d="m-735.6 298.6c-.6 0-1.2-.2-1.7-.6-1.8-1.5-3.5-3-5-4.3-4.4-3.8-8.2-7-10.9-10.2-3-3.6-4.3-7-4.3-10.7 0-3.6 1.2-6.9 3.5-9.3 2.3-2.5 5.4-3.8 8.7-3.8 2.5 0 4.8.8 6.9 2.4 1 .8 2 1.8 2.8 2.9.8-1.1 1.8-2.1 2.8-2.9 2-1.6 4.3-2.4 6.9-2.4 3.4 0 6.5 1.4 8.7 3.8s3.5 5.7 3.5 9.3c0 3.7-1.4 7.1-4.3 10.7-2.6 3.2-6.5 6.4-10.9 10.2-1.5 1.3-3.2 2.7-5 4.3-.5.4-1.1.6-1.7.6zm-10.1-37.1c-2.8 0-5.3 1.1-7.2 3.1s-2.9 4.8-2.9 7.9c0 3.2 1.2 6.1 3.9 9.4 2.6 3.2 6.5 6.5 11 10.3 1.6 1.3 3.4 2.9 5.2 4.5 1.9-1.6 3.7-3.1 5.2-4.5 4.5-3.8 8.4-7.1 11-10.3 2.7-3.3 3.9-6.2 3.9-9.4 0-3.1-1-5.9-2.9-7.9-1.8-2-4.4-3.1-7.2-3.1-2 0-3.9.6-5.5 1.9-1.5 1.1-2.5 2.6-3.1 3.6-.3.5-.8.8-1.4.8s-1.1-.3-1.4-.8c-.6-1-1.6-2.4-3.1-3.6-1.6-1.2-3.4-1.9-5.5-1.9z"/><path d="m-682.3 273c.2.1.5.1.7.2.5.2.7.5.5 1-1.3 2.7-2.6 5.3-4.6 7.5-4.1 4.8-9.3 7.7-15.6 8.7-.4.1-.7.2-.8.6-.8 2-1.6 4-2.3 6-.3.7-.5 1-1 .9s-.6-.5-.3-1.3c.7-2.3 1.5-4.5 2.6-6.7.1-.2.1-.5.1-.7 0-4.2.9-8.2 2.8-11.9 2.2-4.3 5.4-7.7 9.6-10.2 4.1-2.5 8.2-5 12.4-7.6.2-.1.4-.2.6-.2.5 0 .7.4.6 1.1-.4 1.5-.7 3-1.1 4.5-.5 2-1 4-1.5 6-.1.4-.3.7-.7.9-.7.3-1.4.7-2.1 1 .1.2.1.2.1.2zm-.3 1.3c-.6-.1-1.1-.3-1.7-.4-.4-.1-.7-.2-.7-.6-.1-.4.2-.6.6-.8 1.1-.5 2.2-1.1 3.3-1.7.2-.1.4-.3.4-.6.7-2.8 1.4-5.5 2.1-8.3 0-.1 0-.2 0-.4-.1.1-.2.1-.3.2-3.6 2.2-7.2 4.4-10.8 6.6-6.5 4-10.3 9.8-11.6 17.3-.1.5-.1 1-.2 1.4.2 0 .2-.1.3-.2 1.2-1.7 2.5-3.3 3.7-5 .4-.5.8-.5 1.1-.2s.3.6-.1 1.1c-1 1.3-2 2.5-2.9 3.8-.6.8-1 1.6-1.6 2.5 3.6-.6 6.8-2 9.6-3.9 4-2.7 6.8-6.3 8.8-10.8z"/><path d="m-691.9 296.6c.5-.4 1.1-.7 1.5-1.1 1.3-1.4 2.6-2.8 3.9-4.2.2-.3.4-.5.7-.8 1.8-2 4.5-1.3 5.6.4.6 1 .9 2 1 3.1 0 .4.2.9.4 1.3s.6.5 1 .3c.2-.1.5-.3.7-.4.4-.2.7-.5 1.1-.7 1.1-.5 2-.4 2.7.6.8 1.1 1.8 1.4 3 1.4h2.5c.5 0 .8.3.8.7 0 .5-.3.7-.8.6-1.3-.1-2.6-.1-3.9-.2-1-.1-1.8-.7-2.4-1.5s-.9-.8-1.8-.3c-.3.2-.6.4-.9.6-1.6 1-3.3.3-3.6-1.6-.1-.5-.1-1.1-.2-1.6-.2-.6-.4-1.3-.7-1.9-.9-1.3-2.4-1.4-3.5-.2-.8.9-1.6 1.9-2.4 2.9-1.1 1.2-2.2 2.3-3.6 3.1-.8.5-1.7.3-2.2-.4-.2-.2-.2-.5-.3-.8-.3-.8-.9-1.3-1.7-1.1-.7.2-1.3.6-1.9.9-.7.4-1.2 1-1.9 1.4-1 .6-2.1 1-3.2.6-.2-.1-.4-.1-.5-.2-.3-.2-.4-.5-.3-.8.2-.4.5-.5.8-.3 1.1.5 2 .1 2.9-.6.7-.5 1.3-1 2-1.5 1-.7 2-1 3.2-.7.9.2 1.6.8 1.9 1.7-.2.6-.1.9.1 1.3z"/><path d="m-655 260.9h46.6v36.8h-46.6z" fill="none" stroke="#000" stroke-miterlimit="10" stroke-width="2"/><path d="m-520.2 260.2h50.5v36.8h-50.5z" fill="none" stroke="#000" stroke-miterlimit="10" stroke-width="2"/><path d="m-654.8 293.4 23.8-22.7 9 8.4" fill="none" stroke="#000" stroke-miterlimit="10" stroke-width="2"/><path d="m-629.7 286.9 21.3-21.5" fill="none" stroke="#000" stroke-miterlimit="10" stroke-width="2"/><path d="m2.5 35.6h295v228.9h-295z" fill="none" stroke="#000" stroke-miterlimit="10" stroke-width="2"/><path d="m115.2 149.8c0-13 0-26 0-39 0-2.9.3-5.6 3.3-7.1 2.9-1.5 5.3-.4 7.7 1.3 18.2 13 36.4 26 54.7 39 5.4 3.8 5.3 8.1-.1 11.9-18.2 13-36.4 26-54.6 39-2.3 1.6-4.6 2.8-7.4 1.4-2.9-1.5-3.5-4-3.5-7-.1-13.1-.1-26.3-.1-39.5zm12.4 29.1c13.7-9.8 27-19.3 40.6-29-13.7-9.7-27-19.2-40.6-28.9z"/><path d="m-500.7 293.8h11.4v13.9h-11.4z" fill="#f6f6f6" transform="matrix(0 1 -1 0 -194.2001 795.6917)"/><path d="m-486.3 297.1h-1.7l-6.8 7.2-7.1-7.2h-1.7" fill="none" stroke="#000" stroke-miterlimit="10" stroke-width="2"/><path d="m-904.3 265.3c-2.1 4.9-1.6 11.1-5.1 15.4.9-.2 1.8-.4 2.7-.6-1.7-2.2-1.8-5.5 0-7.7 1.8-2.3 4.8-3.6 5.1-6.8.1-.7-2.5.1-2.8.4-1.5 2.1-2.7 4.3-3.7 6.6 1-.2 1.9-.4 2.9-.6-.6-1.2-.7-2.5-.3-3.7-1 .2-1.9.4-2.9.6.3 2.6.4 5.2.1 7.8 1-.2 1.9-.4 2.9-.6-.7-1.2-1.2-2.4-1.5-3.7-.2-.8-3-.1-2.9.8.1 1.9.3 3.9.6 5.8.1.8 2.9.1 2.9-.8 0-2.8 0-5.6.7-8.2.4-1.3.9-2.6 1.6-3.6.3-.4.7-.9 1.2-1 .6-.2 1.5-.1 2.1-.2h2.2c.4 0 .6 0 .8.3.1.2.1.6.2.9.2 1.6.5 3.1.7 4.7.5 3.2 1 6.4 1.4 9.6.1.7 3 .1 2.9-.8-.4-2.9-.9-5.9-1.3-8.8-.2-1.5-.5-3-.7-4.6-.2-1.2-.1-2.5-1.5-2.7-1.3-.2-2.8-.1-4.1 0-1.4.1-2.9.2-4.2.8-2.3 1-3.5 3.5-4.2 5.8-.8 2.8-.8 5.7-.8 8.5 1-.3 1.9-.5 2.9-.8-.3-1.9-.5-3.8-.6-5.8-1 .3-1.9.5-2.9.8.3 1.3.8 2.6 1.5 3.7.3.4 1 .3 1.4.2.3-.1 1.4-.3 1.5-.8.2-2.7.2-5.4-.1-8.1-.1-.8-2.7 0-2.9.6-.4 1.4-.3 2.8.3 4.1.4.8 2.6 0 2.9-.6.9-2.2 2-4.3 3.4-6.3-.9.1-1.8.3-2.8.4-.3 3.2-4.1 4.6-5.5 7.2-1.3 2.4-1 5.4.7 7.6.2.3 1.1.1 1.3.1.4-.1 1.1-.3 1.4-.6 3.6-4.5 3.2-10.6 5.4-15.7.2-.5-1-.4-1.2-.4-.5.1-1.5.3-1.7.8z" fill="#1d1d1b"/><path d="m-902 264.2c3-.6 6.1-1.2 9.1-1.7 2.7-.5 5.7-.5 7.8 1.6 1.8 1.8 2.1 4.8 2.6 7.2.7 3.2 1.3 6.3 2 9.5.1.5 3-.1 2.9-.8-.7-3.4-1.5-6.9-2.2-10.3-.6-2.6-1-5.6-3.4-7.2-2.3-1.6-5.3-1.5-8-1.1-3.5.5-6.9 1.3-10.3 1.9-.3.1-1.7.3-1.7.8.1.3.9.2 1.2.1z" fill="#1d1d1b"/><path d="m-879.7 274.8c.5-.1-.1 0 .2 0 .1 0 .2 0 .3-.1.2 0 .5-.1.7-.1.5-.1.8-.1 1.3-.1.8 0 1.6.3 2.1.9 1.2 1.2 1.3 3.2 1.1 4.8-.1.9-.2 1.9-.6 2.7-.1.3-.3.6-.5.8-.1.1-.2.1-.2.2 0 0 0 0-.1 0 .1 0 .1 0 .2-.1-.1 0-.1 0-.2 0-1.8 0-3.2-2-3.9-3.4-.5-1-.8-2.1-.9-3.2 0-.5 0-1.1.1-1.6.1-.3.1-.5.2-.8 0-.1.1-.2.1-.3.1-.1.3-.4.1-.2-.2.1-.5.2-.7.3h.1c-.3 0-.5.1-.8.1h.1c-.2 0-.4-.1-.6-.1.3.1.4.6.6.8.2.4.4.8.5 1.2.3.8.4 1.7.4 2.6 0 .2.4.4.6.4.3.1.7 0 1.1-.1.5-.1 1.3-.5 1.3-1.1 0-1.6-.5-3.1-1.3-4.5-.2-.3-.4-.6-.7-.8-.6-.3-1.3-.2-1.9.1-.9.3-1.4 1-1.8 1.9-1.1 2.7.1 6.1 1.9 8.2 1 1.2 2.3 1.9 3.9 2.1 1.7.1 3.6-.5 4.7-1.9.8-1.1 1-2.5 1.1-3.8s.1-2.7-.3-3.9c-1.4-3.6-5.6-3.2-8.7-2.6-.4.1-1.4.5-1.3 1.1.3.7 1.4.5 1.8.5z" fill="#1d1d1b"/><path d="m-873.6 279.6c2.6-6.3 1.6-13.4-4.9-16.8s-15.2-2.1-21.7.6c2.5 1.4 4.9 2.8 7.4 4.2-.1-.2-.1-.4-.2-.6-.2 1.5-.4 3.1-.6 4.6-1.8 2.5 2.9-1 .2 3.2-.4 2-1.8 3-4.1 3.1 2-1 2.5-2.1 1.2-3.2-.5-6.9-9.4-8-11.8-1.6-2.3 6.1-1.8 12.5 3.8 16.5 5.4 3.9 12 4.6 18.4 3.3 7.6-1.5 4.4-13.1-3.2-11.6-2.1.4-4.3.4-6.3-.5-2.6-1.1-2-2.1-1.1-4.5-3.9-.5-7.9-1.1-11.8-1.6.5 6.7 4.7 12.6 11.9 12.9 6.7.3 11.4-4.3 10.7-11-.6-5.9-5.8-10.5-11.9-8.6-5.9 1.9-8.3 8.8-6.1 14.2 2.4 5.8 9.4 8.5 15 5.5 5.4-2.8 8.2-10.6 7.9-16.3-.4-6.4-4.9-11.1-11.4-10.9-5.8.1-14.3 3.1-12.1 10.4.8 2.8 4.3 5.4 7.4 4.2 2.8-1.1 5.6-2.1 8.7-2.1.8 0 3-.2 3.6.3 1 .9.2 1.7-.4 3.3-3.1 6.9 8.5 10 11.4 3z" fill="#1d1d1b"/><path d="m-887.1 293c4-.3 7.9-1.1 11.4-3.1 1.7-1 3.1-2.4 3.9-4.1.5-1 .6-2.1.7-3.2.1-.4.4-1.2.2-.9-.7.7-1.4 1.4-2.2 2.2.1 0 .2-.1.3-.1-2 0-4 0-6.1 0 .1.1.2.1.3.2-.7-.7-1.4-1.4-2.2-2.2-.2-.4-.4-.7-.6-1.1.3-1 .5-2 .8-3-.1.3-.2.5-.3.8-1.3 3-.9 6.4 2.2 8.2 2.7 1.6 6.7.7 8.2-2.2 2.8-5.4 1.9-13.8-3.2-17.7-2.9-2.2-6.9-2.2-9.5.4-1.2 1.1-1.8 2.5-2.2 4.1-.3 1.1-.2 1.9-1 2.7-5.2 5.7 3.3 14.2 8.5 8.5 2.6-2.9 3.2-5.7 4.4-9.2-.5.9-1 1.8-1.5 2.6.2-.2.4-.3.6-.5-1.4.6-2.8 1.2-4.2 1.8.2 0 .5 0 .7-.1-1-.3-2-.5-3-.8-1-.5-.3-.1 0 1 .1.5-.1 1.7.1 1.1 3.5 2 6.9 4 10.4 6.1 2-4.4 1.4-11-4.5-11.8-2.6-.3-5.1.9-6.4 3.2-1.2 2-1.1 3.9-1.7 6 .5-.9 1-1.8 1.5-2.6-1.1 1.3-4 1.7-5.6 1.8-3.2.3-6 2.6-6 6 0 2.9 2.7 6.1 6 5.9z" fill="#1d1d1b"/><path d="m-880.5 292.6c.9 1 1.8 2.2 2.5 3.4.1.2.6.3.8.3.3 0 .6-.1.9-.2s.6-.2.8-.4.4-.4.3-.7c-.5-1.5-.7-3.1-.7-4.7v.2c0-.1 0-.1 0-.2 0-.2 0-.3-.1-.4-.2-.2-.4-.2-.6-.3-.6-.1-1.1.1-1.6.4-.8.5-1.7 1-2.5 1.5-.4.2-.9.9-.2 1.2.6.3 1.5.1 2.1-.3.8-.5 1.7-1 2.5-1.5-.8-.1-1.6-.2-2.4-.3 0 1.7.2 3.5.7 5.1.9-.3 1.9-.6 2.8-1-.7-1.2-1.5-2.4-2.5-3.4-.2-.2-.5-.3-.8-.3-.4 0-.8.1-1.1.2-.5.3-1.3.9-.9 1.4z" fill="#1d1d1b"/><path d="m-415.9 257.7c0-.1 0-.1 0 0 0-.1 0-.1 0-.1s0 0 0-.1 0 0 0-.1v-.1-.1-.1c-.1-.1-.1-.2-.2-.3-.4-.4-.9-.6-1.5-.3l-44.2 18.3s0 0-.1 0c0 0 0 0-.1 0 0 0 0 0-.1 0 0 0 0 0-.1 0v.1.1.1.1.1.1.1.1.1.1.1.1.1.1.1.1.1s0 .1.1.1.1 0 .1.1h.1s.1 0 .1.1h.1l17.8 7.5 7.5 17.8v.1.1.1s0 .1.1.1 0 0 .1.1h.1s.1 0 .1.1h.1.1.1.1.1.1.1.1.1.1s.1 0 .1-.1h.1s.1 0 .1-.1 0-.1.1-.1 0 0 0-.1 0 0 0-.1v-.1l18.3-44.1c0-.1.1-.2.1-.3v-.1-.1c.3.3.3.2.3.2zm-42.3 18.2 35.7-14.7-21 21zm22.7 22.6-6.2-14.5 20.7-20.7z"/><path d="m-936.1 340.1h1.4c.1 0 .3.1.4.1 2.6.1 5.2.7 7.7 1.5 4.7 1.5 8.9 4 12.8 7 .9.7 1.9 1.5 2.7 2.3 1 1 1.3 2.1.7 3.4-.2.5-.6 1-1 1.4-2.3 2.2-4.8 4.1-7.5 5.8-4.4 2.6-9.1 4.4-14.2 4.8-4.9.4-9.6-.5-14.1-2.4-3.9-1.6-7.4-3.9-10.6-6.7-1.1-1-2.5-1.9-2.9-3.5 0-.3 0-.7 0-1 .3-1 .9-1.8 1.7-2.4 3.4-2.8 7-5.3 11.1-7.1 3-1.3 6.1-2.3 9.3-2.7.8-.3 1.7-.4 2.5-.5zm-9.4 13.1c0 5.6 4.5 10.1 10.1 10.2 5.5.1 10.1-4.5 10.1-10.1s-4.5-10.2-10.1-10.2c-5.5-.1-10 4.5-10.1 10.1z"/><path d="m-931.5 353.2c0 2.1-1.7 3.9-3.9 4-2.1 0-3.9-1.8-3.9-4 0-2.1 1.8-3.9 3.9-3.9s3.9 1.7 3.9 3.9z"/><path d="m-513.2 275.2h8.7v8.7h-8.7z"/><path d="m-498.5 275.2h8.7v8.7h-8.7z"/><path d="m-483.8 275.2h8.7v8.7h-8.7z"/><path d="m-943 131.1c.8 2.8 3.3 3.4 5.3 4.5 3.1 1.6 6.3 3 9.4 4.6 1.1.6 2.3 1.3 3.1 2.3 5 6.6 9 13.8 10.9 22 1.4 6.2.6 12.3-1 18.4 0 .1-.1.2-.1.3-.2 4.3-2.9 6.6-6.7 7.9-2.5.8-5 1.9-7.6 2.6-1.2.3-2.7.2-3.9 0-1-.2-1.8 0-2.7.4-1.6.7-3.2 1.5-4.9 1.8-4 .8-8.1 1-12-.7-.5-.2-1.1-.1-1.7-.1-6.2.4-12.3.5-18.4-1-6.2-1.5-10.7-5-13.5-10.7-2-4.1-3.3-8.4-4.1-12.9-.4-2.7.2-5.2.9-7.8 1.5-5 3.6-9.8 6.4-14.1 1.2-1.8 2.8-3.4 4.3-4.9 2.5-2.6 5.1-5 7.6-7.6.3-.3.6-.8.6-1.2 0-3.2 1.3-4.6 4.4-5 .4 0 .9-.3 1.3-.6.9-.6 1.8-1.4 2.8-2 2.6-1.8 5.3-2.9 8.6-2.2 2 .4 4 .1 5.8-.8.6-.3 1.1-.6 1.7-.7 1.3-.3 2.6-1.5 3.8 0 1.5 1.9 1.8 4.3.7 6-.2.5-.7 1.1-1 1.5zm-24.4 16.3c1.1.6 2 1.3 3.1 1.6 2.4.7 4.9 1.2 7.4 1.7 2.4.5 4.8.2 7-.8 2.3-1 4.6-2.3 7-3.3 1.3-.6 2.8-1 4.2-1 .8 0 1.6.1 2.4-.3 0 0 .1.1.3.2-.2.3-.3.6-.4.8.5.6.9 1.1 1.3 1.7.3-.1.7-.2 1.4-.5-1.1 1.7-1.2 3.1 0 4.3-.4.6-.8 1.2-1.2 1.8-1.3 2-3.1 3.5-5.4 4.2-2.5.8-5 1.9-7.5 2.7-3.7 1.2-7.4 2.4-11.4 2.1-2.2-.2-4.4-.2-6.6 0-1.8.2-3.5 1-5.3 1.4-1 .2-2.1.5-3.1.3-1-.1-1.9-.7-2.8-1.1-3.7-1.5-6.9-3.5-8.8-7.1 0 0-.2 0-.4-.1-.6 1.5-1.4 3-1.9 4.5-1.1 3-2.1 6.1-1.5 9.4.8 4.4 2 8.7 4 12.8 2.1 4.2 5.5 7.2 9.8 9 5.8 2.4 12 2.7 18.1 2.2.8-.1 1.6-.2 2.6-.3-.6-.6-1-.9-1.3-1.4-2.2-3-4.8-5.9-6.6-9.1-2.5-4.6-.9-9.1 3.6-11.8.4-.2.7-.4 1-.7-.1-.1-.2-.2-.2-.4-1.2.8-2.5 1.5-3.6 2.4-1.4 1.1-2.9 1.5-4.6 1s-3.3-1.4-5-2.1c.3-.2.6-.4 1.1-.8-.9-.8-1.8-1.6-2.4-2.1.3-.4.9-.9 1-1.4 0-.5-.5-1.1-.8-1.6.4-.2 1-.6 1.5-.8 1.3-.6 2.5-1.5 3.8-1.7 2-.3 4.1-.3 6.1-.3 2.1 0 4.3.4 6.4 0 7.8-1.4 15.2-3.8 21.5-8.7 3.5-2.7 6.8-5.8 12-4.9-2.1-3.8-4.1-7.4-8.3-9-1.2-.5-2.4-1.2-3.6-1.8-2.8-1.4-5.7-2.9-8.7-4.4-.1.8-.2 1.3-.2 1.9-.1.7.2 1.6-.2 2.1-.6.8-1.4 1.9-2.3 2-1.1.1-1.2-1.2-1.3-2.2-.3-2.4-.3-2.5-3.2-2.3.9-1.3 1.7-2.3 2.5-3.3-.6-.1-1.2-.3-1.8-.3-3.8-.5-6.8 1-9.5 3.5-2.8 2.5-5.2 5.5-8.6 7.4-1.9 1-1.7 2 .1 3.1-.2.4-.4.8-.7 1.5zm11.1 22.8c4.3.5 7.2 2.9 8.7 6.9 1 2.7 1.8 5.4 2.8 8.1.2.5.7 1.1 1.2 1.2 2.2.3 4.5.5 6.8.8-.6-.3-1.2-.6-1.8-.7-1.4-.2-2.8-.3-4.3-.5-1.2-.2-2.2-1.7-2.3-3.3-.1-1.3 1-1.3 1.8-1.6 4.4-1.7 9.1-2.7 13.8-2.9 2.7-.2 5.4 0 7.8 1.3 2.2 1.2 3.4 3 3.2 5.6-.1 1.1-.5 2.3-.7 3.4 1.5-.9 2.5-2.1 2.8-3.8.2-1 .5-2 .7-2.9 2-6.6 1.9-13.3.1-19.9-.6-2.4-2.7-3.3-4.8-1.9-2.7 1.8-5.3 3.7-7.9 5.7-3 2.4-6.3 4-10.1 4.5-3 .4-6 .5-9 .5-2.9-.1-5.9-.4-8.8-.5zm13.5-45.9c-.5.1-1.3.4-1.4.3-.7-1.1-1.5-.3-2.1-.1-3 1.2-6 1.6-9.2 1.2-1.3-.2-2.9.2-4.1.8-1.9 1-3.7 2.4-5.4 3.8-2 1.6-1.8 2.6.4 3.8.5.3 1.2 1 1.1 1.4-.1.5-.8 1.2-1.4 1.4-1.8.5-3.6.6-5-.8-3.5 3.4-7 6.7-10.5 10.1-.8.8-1.5 1.9-2.2 2.8 5.2-1.4 10.3.9 15.4-.4-.1-.2-.2-.3-.4-.4-2.3-2.4-2.1-4.4.7-6.2.5-.3 1-.6 1.5-.9.9-.6 2-1.1 2.6-1.9 2.9-3.6 6.1-6.7 10.6-7.7-1.2-.7-2.6-1.5-3.8-2.4-.9-.6-.6-1.7.4-2.2 2.4-1.1 4.6 0 5 2.6 0 .2.1.4 0 .2 1.1-.1 2.3-.6 3-.2s1 1.7 1.5 2.6c.6-.2 1.3-.4 2.2-.7-.3-.3-.5-.4-.8-.6 3.1-1.7 3.6-3.6 1.9-6.5z"/><path d="m-960.8 140.8c0-.2 0-.6.1-.9.2-1 .5-2.1 1.8-2 1.2 0 1.9.9 2.2 2.1.2.8.3 1.6.5 2.4.3.8.5 1.7-.4 2-.7.3-1.8.4-2.5 0-1.2-.8-1.7-2.1-1.7-3.6z"/><path d="m-994.6 353.2 11-10.8 10 9.8" fill="none" stroke="#1d1d1b" stroke-miterlimit="10" stroke-width="2"/><path d="m-983.6 342.4v23.1" fill="none" stroke="#1d1d1b" stroke-miterlimit="10" stroke-width="2"/><path d="m-873.4 333.6 26.4.1" fill="none" stroke="#000" stroke-miterlimit="10" stroke-width="2"/><path d="m-891.4 350.3 26.5.1" fill="none" stroke="#000" stroke-miterlimit="10" stroke-width="2"/><path d="m-891.4 333.6h7.1" fill="none" stroke="#000" stroke-miterlimit="10" stroke-width="2"/><path d="m-854.1 350.4h7.1" fill="none" stroke="#000" stroke-miterlimit="10" stroke-width="2"/><circle cx="-878.9" cy="333.6" fill="none" r="5.4" stroke="#000" stroke-miterlimit="10" stroke-width="2"/><path d="m-873.4 368.2 26.4.1" fill="none" stroke="#000" stroke-miterlimit="10" stroke-width="2"/><path d="m-891.4 368.2h7.1" fill="none" stroke="#000" stroke-miterlimit="10" stroke-width="2"/><circle cx="-878.7" cy="368.2" fill="none" r="5.4" stroke="#000" stroke-miterlimit="10" stroke-width="2"/><circle cx="-859.1" cy="350.4" fill="none" r="5.4" stroke="#000" stroke-miterlimit="10" stroke-width="2"/><path d="m-823.2 364.7 4.5 4.7-6 1.5z"/><path d="m-821.7 361.8 12.9-13.2 6.2 5.8-13.2 13.1z"/><path d="m-806.3 346.4 3.7-3.5 5.8 5.5-3.7 3.5z"/><g fill="none"><path d="m-826.6 344.9v9.7" stroke="#000" stroke-miterlimit="10" stroke-width="2"/><path d="m-826.6 335.8v-8.9h8.8" stroke="#000" stroke-miterlimit="10" stroke-width="2"/><path d="m-808.1 326.9h8.4" stroke="#000" stroke-miterlimit="10" stroke-width="2"/><path d="m-789.7 326.9h8.6v8.9" stroke="#000" stroke-miterlimit="10" stroke-width="2"/><path d="m-781.1 364v7.9h-8.6" stroke="#000" stroke-miterlimit="10" stroke-width="2"/><path d="m-781.1 345.8v8" stroke="#000" stroke-miterlimit="10" stroke-width="2"/><path d="m-808.1 372.5h8.4" stroke="#000" stroke-miterlimit="10" stroke-width="2"/><path d="m384.2-860-322.1 278.5" stroke="#000" stroke-miterlimit="10" stroke-width="2"/><path d="m62.3-582.1 278.5 322.1" stroke="#000" stroke-miterlimit="10" stroke-width="2"/><path d="m-696.5 326.8c-2-.5-4.1-.8-6.3-.8-13.6 0-24.6 11-24.6 24.6s11 24.6 24.6 24.6 24.6-11 24.6-24.6c0-7.9-3.7-14.9-9.5-19.4" stroke="#000" stroke-miterlimit="10" stroke-width="2"/><path d="m-702.7 334.1v33.3" stroke="#000" stroke-miterlimit="10" stroke-width="2"/><path d="m-719.2 350.6h12.7" stroke="#000" stroke-miterlimit="10" stroke-width="2"/><path d="m-698.9 350.7h12.7" stroke="#000" stroke-miterlimit="10" stroke-width="2"/><path d="m-633.5 367.4c-6 0-10.9-4.9-10.9-10.9v-17.2c0-6 4.9-10.9 10.9-10.9 6 0 10.9 4.9 10.9 10.9v17.2c0 6-4.9 10.9-10.9 10.9z" stroke="#000" stroke-miterlimit="10" stroke-width="2"/><path d="m-618 356.1v3.2c0 8.2-6.6 14.8-14.8 14.8h-1.2c-8.2 0-14.8-6.6-14.8-14.8v-3.2" stroke="#000" stroke-miterlimit="10" stroke-width="2"/><path d="m-633.5 374v6" stroke="#000" stroke-miterlimit="10" stroke-width="2"/><path d="m-644.1 380h20.9" stroke="#000" stroke-miterlimit="10" stroke-width="2"/><path d="m-644.3 341.9h9.9" stroke="#000" stroke-miterlimit="10" stroke-width="2"/><path d="m-644.3 347.2h9.9" stroke="#000" stroke-miterlimit="10" stroke-width="2"/><path d="m-644.3 352.5h9.9" stroke="#000" stroke-miterlimit="10" stroke-width="2"/><path d="m-644.3 357.7h9.9" stroke="#000" stroke-miterlimit="10" stroke-width="2"/><circle cx="-563.3" cy="335.8" r="10.4" stroke="#000" stroke-miterlimit="10" stroke-width="2"/><circle cx="-587" cy="338.2" r="7.4" stroke="#000" stroke-miterlimit="10" stroke-width="2"/><path d="m-547.9 360.6 11.9-6v22.7l-11.4-5.8" stroke="#000" stroke-miterlimit="10" stroke-width="2"/><path d="m-557.9 380.3h-34.9c-2.4 0-4.3-1.9-4.3-4.3v-20.9c0-2.4 1.9-4.3 4.3-4.3h34.9c2.4 0 4.3 1.9 4.3 4.3v20.9c.1 2.4-1.9 4.3-4.3 4.3z" stroke="#000" stroke-miterlimit="10" stroke-width="2"/><path d="m-394.8 232.5h-47.7c-2.2 0-3.9-1.8-3.9-3.9v-30.9c0-2.2 1.8-3.9 3.9-3.9h47.7c2.2 0 3.9 1.8 3.9 3.9v30.9c.1 2.1-1.7 3.9-3.9 3.9z" stroke="#1d1d1b" stroke-miterlimit="10" stroke-width="2"/><ellipse cx="-418.6" cy="211.5" rx="13.3" ry="13.3" stroke="#1d1d1b" stroke-miterlimit="10" stroke-width="2" transform="matrix(.1595 -.9872 .9872 .1595 -560.5725 -235.5051)"/><path d="m-429.8 193.2.8-1.6c.4-.8.6-1.6.8-2.5.5-2.6 2.8-4.5 5.5-4.5h8c2.8 0 5.1 2 5.5 4.6.1.8.3 1.5.7 2.2l1.1 2" stroke="#1d1d1b" stroke-miterlimit="10" stroke-width="2"/></g><path d="m-430 194.9 1.2-2c.4-.8.6-1.8.8-2.7.5-2.8 2.8-4.9 5.5-4.9h7.9c2.8 0 5 2.2 5.5 5.1.1.8.3 1.7.7 2.4l1.1 2.2" fill="#fff"/><path d="m-423.2 193.9h9.2v.4h-9.2z" fill="none" stroke="#1d1d1b" stroke-miterlimit="10" stroke-width=".75"/><path d="m-389.8 353.9c0-1.8-1.3-3.7-2.9-4.3s-3.1-2-3.6-3c-.5-1.1-.3-3.2.4-4.7s.3-3.8-1-5.1-3.5-1.7-5.1-1c-1.5.7-3.6.8-4.7.4-1.1-.5-2.5-2-3-3.6-.6-1.6-2.5-2.9-4.3-2.9s-3.7 1.3-4.3 2.9-2 3.2-3 3.6c-1.1.5-3.2.3-4.7-.4s-3.8-.3-5.1 1-1.7 3.5-1 5.1c.7 1.5.8 3.6.4 4.7-.5 1.1-2 2.5-3.6 3-1.6.6-2.9 2.5-2.9 4.3s1.3 3.7 2.9 4.3 3.1 2 3.6 3c.5 1.1.3 3.2-.4 4.7s-.3 3.8 1 5.1 3.5 1.7 5.1 1c1.5-.7 3.6-.8 4.7-.4 1.1.5 2.5 2 3 3.6.6 1.6 2.5 2.9 4.3 2.9s3.7-1.3 4.3-2.9 2-3.2 3-3.6c1.1-.5 3.2-.3 4.7.4s3.8.3 5.1-1 1.7-3.5 1-5.1c-.7-1.5-.8-3.6-.4-4.7.5-1.1 2-2.5 3.6-3s2.9-2.5 2.9-4.3zm-24.2 8.9c-4.9 0-8.9-4-8.9-8.9s4-8.9 8.9-8.9 8.9 4 8.9 8.9c0 5-4 8.9-8.9 8.9z"/><path d="m-462.1 357.1c0-1.8-1.3-3.7-2.9-4.3s-3.1-2-3.6-3c-.5-1.1-.3-3.2.4-4.7s.3-3.8-1-5.1-3.5-1.7-5.1-1c-1.5.7-3.6.8-4.7.4-1.1-.5-2.5-2-3-3.6-.6-1.6-2.5-2.9-4.3-2.9s-3.7 1.3-4.3 2.9-2 3.2-3 3.6-3.2.3-4.7-.4-3.8-.3-5.1 1-1.7 3.5-1 5.1.8 3.6.4 4.7c-.5 1.1-2 2.5-3.6 3s-2.9 2.5-2.9 4.3 1.3 3.7 2.9 4.3 3.1 2 3.6 3c.5 1.1.3 3.2-.4 4.7s-.3 3.8 1 5.1 3.5 1.7 5.1 1c1.5-.7 3.6-.8 4.7-.4 1.1.5 2.5 2 3 3.6.6 1.6 2.5 2.9 4.3 2.9s3.7-1.3 4.3-2.9 2-3.1 3-3.6c1.1-.5 3.2-.3 4.7.4s3.8.3 5.1-1 1.7-3.5 1-5.1c-.7-1.5-.8-3.6-.4-4.7.5-1.1 2-2.5 3.6-3s2.9-2.5 2.9-4.3zm-24.2 8.9c-4.9 0-8.9-4-8.9-8.9s4-8.9 8.9-8.9 8.9 4 8.9 8.9-4 8.9-8.9 8.9z" fill="#fff" stroke="#1d1d1b" stroke-miterlimit="10" stroke-width="2"/><path d="m-994.3-170.8 3.4-2.7c3 4 8.1 7.2 14.2 7.2 8.1 0 12.1-4.4 12.1-9.4 0-5.8-6.5-7.2-13-8.8-7.3-1.8-14.6-4-14.6-12.2 0-6.5 5.9-12.2 15.3-12.2 6.4 0 12 2.4 15.6 6.5l-3.3 2.7c-3.1-3.4-6.9-5.3-12.3-5.3-7 0-11 3.5-11 8.3 0 5.5 6.2 7 12.6 8.6 7.4 1.8 15 4.1 15 12.5 0 6.3-5.2 13.3-16.6 13.3-7.5-.2-13.8-3.6-17.4-8.5z"/><path d="m-956.9-208h4.2v9.1c3-5.9 9.2-10 17.2-10 11.9 0 19.8 7.8 19.8 20.5v25h-4.3v-25.1c0-9.9-6-16.4-16-16.4-9.4 0-16.5 7.1-16.5 16.5v25h-4.3v-44.6z"/><path d="m-912.6-185.7c0-12.8 9.9-23.3 23-23.3 7.3 0 15.2 4 18.7 11.2v-10.2h4.3v44.6h-4.3v-10.2c-3.5 7.2-11.4 11.1-18.7 11.1-13.1 0-23-10.4-23-23.2zm42.2 0c0-10.6-8.3-19.2-19-19.2-10.4 0-18.8 8.5-18.8 19.2s8.3 19.1 18.8 19.1c10.7.1 19-8.4 19-19.1z"/><path d="m-863.3-185.7c0-12.8 9.9-23.3 23-23.3 7.3 0 15.2 4 18.7 11.2v-10.2h4.3v43.7c0 13.8-8.8 22.5-22.3 22.5-11 0-16.8-4.6-21.1-12.2l4.2-1.9c3.3 6.3 8.1 10.1 16.9 10.1 11.1 0 18-7.2 18-18.4v-9.5c-3.5 7.2-11.4 11.1-18.7 11.1-13 .1-23-10.3-23-23.1zm42.2 0c0-10.6-8.3-19.2-19-19.2-10.4 0-18.8 8.5-18.8 19.2s8.3 19.1 18.8 19.1c10.7.1 19-8.4 19-19.1z"/><path d="m-716.1-208.8c-8.6 0-15.1 4.7-17.8 11.1-2.4-6.7-8.2-11.1-17.2-11.1-3 0-5.6.6-8 1.6.8 1 1.5 2.1 2.1 3.3 1.7-.6 3.6-.9 5.6-.9 9.3 0 15.1 5.9 15.1 14.6v26.9h4.3v-26.1c0-9.5 6.9-15.5 15.8-15.5 9.5 0 15.6 6.5 15.6 15.5v26.1h4.3v-25.8c.1-11.7-7.4-19.7-19.8-19.7z"/><path d="m-752.1-192c-.8-4.5-2.5-8.8-4.9-12.6-2.5-3.8-5.7-7-9.4-9.5-1.9-1.2-3.8-2.3-5.9-3.1s-4.2-1.4-6.3-1.8l-.1.4c2.1.6 4.1 1.3 6 2.3 1.9.9 3.8 2.1 5.4 3.4 1.7 1.3 3.2 2.8 4.6 4.4s2.6 3.3 3.6 5.2c1 1.8 1.9 3.8 2.6 5.7.3 1 .6 2 .8 3s.4 2 .5 3.1c.3 2.1.3 4.1.1 6.2-.1 1-.2 2.1-.4 3.1s-.4 2-.7 3-.6 1.9-1 2.9c-.4.9-.9 1.9-1.4 2.7-.5.9-1.1 1.7-1.6 2.6-.6.8-1.2 1.6-1.9 2.4-1.3 1.5-2.8 3-4.3 4.3-1.6 1.3-3.2 2.5-4.9 3.6-2.9 1.8-6 3.3-9.3 4.3 1.2-1.3 2.1-3 2.6-4.9.1-.4.2-.8.2-1.3.1-.8.2-1.6 0-2.5-.1-.7-.3-1.4-.5-2.1v-.1c-1.2-3.4-4.1-6.2-7.9-7-4.5-1-8.9.9-11.3 4.5-8-1.9-20.3-15.7-12.3-29.6 1 .9 2.6 1.3 4.9 1.2 3.5-.2 6.4-2.7 6.4-6.1s-2.9-6.1-6.4-6.1-6.4 2.7-6.4 6.1c0 1.7.2 3 .7 3.9 0 1-2.1 3.1-3 4.4-.9 1.5-10.1 12.1-3.3 26.8.8 1.7 1.7 3.2 2.7 4.5s9 14.7 31.7 11.8h.3c1.5-.2 3-.4 4.5-.8.2 0 .4-.1.6-.1 2.7-.7 5.4-1.8 7.9-3.2 2-1.1 3.9-2.4 5.7-3.9s3.4-3.2 4.8-5c2.8-3.7 4.9-8 6-12.4.3-1.1.5-2.3.6-3.4.2-1.1.2-2.3.3-3.4.2-2.3.1-4.6-.3-6.9z"/><path d="m-787.6-180c2.2 1.4 4.7.4 5.4-2 .7-2.2-.3-4.9-2.3-6.2-2.2-1.4-4.7-.6-5.5 1.9-.7 2.2.4 5 2.4 6.3z"/><path d="m-803.4-192.6c-2.3.3-4.5 2.3-4.8 4.7-.4 2.6 1.5 4.5 4.1 4.1 2.3-.3 4.3-2.3 4.7-4.6.4-2.5-1.5-4.5-4-4.2z"/><path d="m-796.4-175.9c1.3.2 2.5-.1 2.6-.8.1-.6-.9-1.4-2.2-1.6s-2.5.1-2.6.8c0 .7.9 1.4 2.2 1.6z"/><path d="m-665.3-282.5h174.5v99.1h-174.5z" fill="#fff"/><path d="m-560.1-236.3c-.4-2.4-1.3-4.7-2.6-6.7s-3-3.8-5-5.1c-1-.7-2.1-1.2-3.2-1.7-1.1-.4-2.2-.8-3.4-1l-.1.2c1.1.3 2.2.7 3.2 1.2s2 1.1 2.9 1.8 1.7 1.5 2.5 2.3c.7.9 1.4 1.8 2 2.8s1 2 1.4 3.1c.2.5.3 1.1.4 1.6s.2 1.1.3 1.7c.1 1.1.2 2.2.1 3.3 0 .6-.1 1.1-.2 1.6s-.2 1.1-.4 1.6-.3 1-.6 1.5c-.2.5-.5 1-.7 1.5-.3.5-.6.9-.9 1.4-.3.4-.7.9-1 1.3-.7.8-1.5 1.6-2.3 2.3s-1.7 1.4-2.7 2c-1.5 1-3.2 1.7-5 2.3.7-.7 1.2-1.6 1.4-2.7.1-.2.1-.5.1-.7.1-.4.1-.8 0-1.3-.1-.4-.2-.8-.3-1.1-.6-1.8-2.2-3.3-4.2-3.8-2.4-.5-4.8.5-6.1 2.4-4.3-1-10.9-8.4-6.6-15.9.5.5 1.4.7 2.6.6 1.9-.1 3.4-1.5 3.4-3.3s-1.5-3.3-3.4-3.3-3.4 1.5-3.4 3.3c0 .9.1 1.6.4 2.1 0 .5-1.2 1.6-1.6 2.4-.5.8-5.4 6.5-1.8 14.4.4.9.9 1.7 1.4 2.4s4.9 7.9 17 6.3h.2c.8-.1 1.6-.2 2.4-.4.1 0 .2-.1.3-.1 1.5-.4 2.9-1 4.3-1.7 1.1-.6 2.1-1.3 3.1-2.1s1.8-1.7 2.6-2.7c1.5-2 2.6-4.3 3.2-6.7.1-.6.3-1.2.3-1.8.1-.6.1-1.2.2-1.8 0-1 0-2.3-.2-3.5z"/><path d="m-579.2-229.9c1.2.7 2.5.2 2.9-1.1.4-1.2-.2-2.6-1.2-3.3-1.2-.8-2.5-.3-2.9 1s.1 2.7 1.2 3.4z"/><path d="m-587.7-236.6c-1.3.1-2.4 1.2-2.6 2.5-.2 1.4.8 2.4 2.2 2.2 1.2-.2 2.3-1.2 2.5-2.5.3-1.3-.7-2.4-2.1-2.2z"/><path d="m-583.9-227.7c.7.1 1.3-.1 1.4-.4s-.5-.7-1.2-.8-1.3.1-1.4.4.5.7 1.2.8z"/><path d="m-490.8-184h174.5v99.1h-174.5z" fill="url(#a)"/><path d="m-385.6-137.7c-.4-2.4-1.3-4.7-2.6-6.7s-3-3.8-5-5.1c-1-.7-2.1-1.2-3.2-1.7-1.1-.4-2.2-.8-3.4-1l-.1.2c1.1.3 2.2.7 3.2 1.2s2 1.1 2.9 1.8 1.7 1.5 2.5 2.3c.7.9 1.4 1.8 2 2.8s1 2 1.4 3.1c.2.5.3 1.1.4 1.6s.2 1.1.3 1.7c.1 1.1.2 2.2.1 3.3 0 .6-.1 1.1-.2 1.6s-.2 1.1-.4 1.6-.3 1-.6 1.5c-.2.5-.5 1-.7 1.5-.3.5-.6.9-.9 1.4-.3.4-.7.9-1 1.3-.7.8-1.5 1.6-2.3 2.3s-1.7 1.4-2.7 2c-1.5 1-3.2 1.7-5 2.3.7-.7 1.2-1.6 1.4-2.7.1-.2.1-.5.1-.7.1-.4.1-.8 0-1.3-.1-.4-.2-.8-.3-1.1-.6-1.8-2.2-3.3-4.2-3.8-2.4-.5-4.8.5-6.1 2.4-4.3-1-10.9-8.4-6.6-15.9.5.5 1.4.7 2.6.6 1.9-.1 3.4-1.5 3.4-3.3s-1.5-3.3-3.4-3.3-3.4 1.5-3.4 3.3c0 .9.1 1.6.4 2.1 0 .5-1.2 1.6-1.6 2.4-.5.8-5.4 6.5-1.8 14.4.4.9.9 1.7 1.4 2.4s4.9 7.9 17 6.3h.2c.8-.1 1.6-.2 2.4-.4.1 0 .2-.1.3-.1 1.5-.4 2.9-1 4.3-1.7 1.1-.6 2.1-1.3 3.1-2.1s1.8-1.7 2.6-2.7c1.5-2 2.6-4.3 3.2-6.7.1-.6.3-1.2.3-1.8.1-.6.1-1.2.2-1.8.1-1.1 0-2.3-.2-3.5z"/><path d="m-404.7-131.3c1.2.7 2.5.2 2.9-1.1.4-1.2-.2-2.6-1.2-3.3-1.2-.8-2.5-.3-2.9 1-.4 1.2.1 2.7 1.2 3.4z"/><path d="m-413.2-138.1c-1.3.1-2.4 1.2-2.6 2.5-.2 1.4.8 2.4 2.2 2.2 1.2-.2 2.3-1.2 2.5-2.5.3-1.3-.7-2.3-2.1-2.2z"/><path d="m-409.4-129.1c.7.1 1.3-.1 1.4-.4s-.5-.7-1.2-.8-1.3.1-1.4.4c0 .3.5.6 1.2.8z"/><path d="m-490.2-282.6h174.5v99.1h-174.5z" fill="#ff6c1a"/><path d="m-665.3-184h174.5v99.1h-174.5z" fill="#f4f4f4"/><path d="m-560.1-136.5c-.4-2.4-1.3-4.7-2.6-6.7s-3-3.8-5-5.1c-1-.7-2.1-1.2-3.2-1.7-1.1-.4-2.2-.8-3.4-1l-.1.2c1.1.3 2.2.7 3.2 1.2s2 1.1 2.9 1.8 1.7 1.5 2.5 2.3c.7.9 1.4 1.8 2 2.8s1 2 1.4 3.1c.2.5.3 1.1.4 1.6s.2 1.1.3 1.7c.1 1.1.2 2.2.1 3.3 0 .6-.1 1.1-.2 1.6s-.2 1.1-.4 1.6-.3 1-.6 1.5c-.2.5-.5 1-.7 1.5-.3.5-.6.9-.9 1.4-.3.4-.7.9-1 1.3-.7.8-1.5 1.6-2.3 2.3s-1.7 1.4-2.7 2c-1.5 1-3.2 1.7-5 2.3.7-.7 1.2-1.6 1.4-2.7.1-.2.1-.5.1-.7.1-.4.1-.8 0-1.3-.1-.4-.2-.8-.3-1.1-.6-1.8-2.2-3.3-4.2-3.8-2.4-.5-4.8.5-6.1 2.4-4.3-1-10.9-8.4-6.6-15.9.5.5 1.4.7 2.6.6 1.9-.1 3.4-1.5 3.4-3.3s-1.5-3.3-3.4-3.3-3.4 1.5-3.4 3.3c0 .9.1 1.6.4 2.1 0 .5-1.2 1.6-1.6 2.4-.5.8-5.4 6.5-1.8 14.4.4.9.9 1.7 1.4 2.4s4.9 7.9 17 6.3h.2c.8-.1 1.6-.2 2.4-.4.1 0 .2-.1.3-.1 1.5-.4 2.9-1 4.3-1.7 1.1-.6 2.1-1.3 3.1-2.1s1.8-1.7 2.6-2.7c1.5-2 2.6-4.3 3.2-6.7.1-.6.3-1.2.3-1.8.1-.6.1-1.2.2-1.8 0-1.1 0-2.3-.2-3.5z" fill="url(#b)"/><path d="m-579.2-130.1c1.2.7 2.5.2 2.9-1.1.4-1.2-.2-2.6-1.2-3.3-1.2-.8-2.5-.3-2.9 1-.4 1.2.1 2.7 1.2 3.4z" fill="#6b3bf3"/><path d="m-587.7-136.8c-1.3.1-2.4 1.2-2.6 2.5-.2 1.4.8 2.4 2.2 2.2 1.2-.2 2.3-1.2 2.5-2.5.3-1.3-.7-2.4-2.1-2.2z" fill="#6b3bf3"/><path d="m-583.9-127.9c.7.1 1.3-.1 1.4-.4s-.5-.7-1.2-.8-1.3.1-1.4.4.5.7 1.2.8z" fill="#6b3bf3"/><path d="m-385.1-236.4c-.4-2.4-1.3-4.7-2.6-6.7s-3-3.8-5-5.1c-1-.7-2.1-1.2-3.2-1.7-1.1-.4-2.2-.8-3.4-1l-.1.2c1.1.3 2.2.7 3.2 1.2s2 1.1 2.9 1.8 1.7 1.5 2.5 2.3c.7.9 1.4 1.8 2 2.8s1 2 1.4 3.1c.2.5.3 1.1.4 1.6s.2 1.1.3 1.7c.1 1.1.2 2.2.1 3.3 0 .6-.1 1.1-.2 1.6s-.2 1.1-.4 1.6-.3 1-.6 1.5c-.2.5-.5 1-.7 1.5-.3.5-.6.9-.9 1.4-.3.4-.7.9-1 1.3-.7.8-1.5 1.6-2.3 2.3s-1.7 1.4-2.7 2c-1.5 1-3.2 1.7-5 2.3.7-.7 1.2-1.6 1.4-2.7.1-.2.1-.5.1-.7.1-.4.1-.8 0-1.3-.1-.4-.2-.8-.3-1.1-.6-1.8-2.2-3.3-4.2-3.8-2.4-.5-4.8.5-6.1 2.4-4.3-1-10.9-8.4-6.6-15.9.5.5 1.4.7 2.6.6 1.9-.1 3.4-1.5 3.4-3.3s-1.5-3.3-3.4-3.3-3.4 1.5-3.4 3.3c0 .9.1 1.6.4 2.1 0 .5-1.2 1.6-1.6 2.4-.5.8-5.4 6.5-1.8 14.4.4.9.9 1.7 1.4 2.4s4.9 7.9 17 6.3h.2c.8-.1 1.6-.2 2.4-.4.1 0 .2-.1.3-.1 1.5-.4 2.9-1 4.3-1.7 1.1-.6 2.1-1.3 3.1-2.1s1.8-1.7 2.6-2.7c1.5-2 2.6-4.3 3.2-6.7.1-.6.3-1.2.3-1.8.1-.6.1-1.2.2-1.8.1-1.1 0-2.3-.2-3.5z"/><path d="m-404.1-230c1.2.7 2.5.2 2.9-1.1.4-1.2-.2-2.6-1.2-3.3-1.2-.8-2.5-.3-2.9 1-.5 1.2.1 2.7 1.2 3.4z"/><path d="m-412.6-236.8c-1.3.1-2.4 1.2-2.6 2.5-.2 1.4.8 2.4 2.2 2.2 1.2-.2 2.3-1.2 2.5-2.5.3-1.3-.7-2.3-2.1-2.2z"/><path d="m-408.8-227.8c.7.1 1.3-.1 1.4-.4s-.5-.7-1.2-.8-1.3.1-1.4.4c0 .3.5.7 1.2.8z"/><path d="m-211.9-240.7c46.8-7.7 85.6-29.5 116.7-65.3 14.7-16.9 24.7-36.6 34.3-56.5 1.8-3.7.2-6.6-3.7-7.7-1.8-.5-3.7-.9-5.5-1.4 0-.3 0-.6 0-.9 5.2-2.6 10.3-5.4 15.6-7.8 3-1.4 4.5-3.4 5.3-6.6 3.7-15.1 7.5-30.1 11.3-45.2 2.8-11.2 5.6-22.3 8.4-33.5 1.2-5-.4-8.2-4.3-8-1.6.1-3.2.9-4.6 1.7-30.9 18.9-61.8 37.8-92.8 56.6-31.1 18.9-55.2 44.3-71.9 76.6-14.5 28-21.5 57.8-21.3 89.4 0 1.9-.1 4-.9 5.6-8.1 16.1-14.5 32.9-19.7 50.1-1.7 5.5-.9 8.5 2.6 9.5 3.3.9 5.2-1.2 7.1-6.4 5.7-15.1 11.6-30.2 17.3-45.3 1-3.1 2.9-4.4 6.1-4.9z"/><path d="m37.5-194c-6.3-.1-12.7-.3-19-.4-9.3 0-17-2.6-22.7-10.8-5.1-7.2-12-8.3-20-4.5-2.9 1.4-5.6 3.3-8.3 4.9-1.8 1-3.5 2.2-5.4 3-3.2 1.4-6.1.6-7.5-2.6-1.4-3-2.4-6.3-2.7-9.6-.9-8.3-2.4-16.3-7.2-23.5-8.7-12.8-28.3-18.6-42-3.3-1.7 1.9-3.2 4-5 5.9-9.6 10.5-19.1 21-29 31.3-2.9 3.1-6.9 5.1-11 8.1-1.1-2.9-1.9-4.8-2.5-6.7-2.1-7.2-7-11.2-14.1-13-8.8-2.2-16.7.4-23.8 5.4-5.1 3.6-9.7 7.7-14.7 11.4-6.5 4.8-13.3 8-21.6 4.3-2.5-1.1-4.9-.1-6.1 2.6-1.1 2.7-.3 4.8 2.1 6.3 1.2.7 2.5 1.3 3.9 1.7 8.9 2.6 17 .2 24.4-4.6 4.9-3.2 9-7.4 13.9-10.5 4.4-2.8 9.1-5.6 14-7 6.3-1.8 10.9 1.7 12.9 7.9.7 2.1 1.3 4.3 2.5 6.1 3.6 5.5 10.2 6.8 16.5 3.1 10.4-6.1 18.7-14.6 26.6-23.6 6.2-7 11.8-14.4 18-21.4 7.9-8.9 19.3-8.5 26.1 1.3 2.7 4 4.1 9.1 5.4 13.9 1.1 3.8 1 8 1.8 11.9 2.8 13.8 15.2 19.2 27.2 11.9 2.2-1.4 4.3-2.8 6.5-4.3 6.2-4.3 8.9-4 13.3 2 4.7 6.3 10.7 10.4 18.4 11.2 9.8 1 19.6 1.1 29.4 1.5 3.3.1 5.6-1.4 5.9-4.8 0-3.1-2.3-5.1-6.2-5.1z"/><path d="m293.7-268.6c-59.1-40.9-118.3-81.7-177.4-122.7-7.8-5.4-15.7-8.9-25-4.2-9.5 4.7-10.6 13.2-10.6 22.5.2 40.9.1 81.8.1 122.7 0 41.5.1 83-.1 124.5 0 9.4 1.8 17.4 11.3 22.1 9.2 4.5 16.6.7 24.1-4.5 59.1-41 118.3-81.8 177.4-122.7 17.6-12.2 17.7-25.6.2-37.7z"/><path d="m-617.3-593.3h294.8v233h-294.8z" fill="none" stroke="#000" stroke-miterlimit="10" stroke-width="2"/><path d="m-616.1-387.6 150.6-143.9 56.7 53.2" fill="none" stroke="#000" stroke-miterlimit="10" stroke-width="2"/><path d="m-322.3-565.3-135.1 136.2"/><path d="m-605.3-581.7c4.2.1 8.3-.5 12.2-2 .8-.3 1.4-1 .1-.9-4.4.4-8.9-.4-12.9-2.4-.8.4-1.5.7-2.3 1.1h66.2 18.7c.6 0 1.5-.1 2-.5.4-.3.5-.6-.2-.6-22.1 0-44.1 0-66.2 0-6.2 0-12.5 0-18.7 0-.6 0-1.2.1-1.8.4-.1.1-.9.5-.5.7 4.5 2.2 9.4 3 14.4 2.5 0-.3.1-.6.1-.9-3 1.1-6.1 1.6-9.3 1.4-.6 0-1.5.1-2 .5-.3.4-.4.7.2.7z"/><path d="m-547.4-523.7c9.7 0 9.7-15 0-15-9.6 0-9.7 15 0 15z"/><path d="m-539.6-531.2c.4-5.3 11.7-3.5 14.6-3.1-.7-4.9-1.3-9.8-2-14.7-9.1 3-16.8 8.1-23.8 14.6-3.2 3-6.3 6.2-9.2 9.5-2.8 3-5.9 8.2-9.5 10.2 1.3-.3 2.5-.7 3.8-1 1.7 1.5 2.4 1.6 2 .4-.2-.9-.4-1.8-.6-2.8-.4-1.8-.6-3.6-.7-5.5-.3-4 0-7.8.4-11.8.7-7.1.3-13-4.4-18.7-6.2-7.4-16.7 3.2-10.6 10.6 1.8 2.1 0 7.9-.2 10.4-.5 5.4-.2 10.7.6 16.1 1.2 8.2 6.8 20.3 17.3 15.1 3.6-1.8 6.2-5.6 8.8-8.5 3-3.3 5.9-6.6 9-9.8 6.1-6.2 12.7-11.8 21-14.5 8.4-2.7 6.3-13.9-2-14.7-13.3-1.4-28.4 2.5-29.6 18.1-.7 9.7 14.3 9.6 15.1.1z"/><path d="m-390.8-541.7c1.6-2.1 3.1-4.2 4.7-6.3 2.8-3.7-1-9.1-5.2-9-41.1.7-81.5-13.7-122.6-5.9-7.6 1.5-4.4 13 3.2 11.6 39.7-7.6 79.6 7 119.4 6.3-1.7-3-3.5-6-5.2-9-1.6 2.1-3.1 4.2-4.7 6.3-4.5 6.2 5.9 12.1 10.4 6z"/><path d="m-579.2-472.5c7.7 0 7.7-12 0-12s-7.7 12 0 12z"/><path d="m-564.1-484.2c7.7 0 7.7-12 0-12-7.8 0-7.8 12 0 12z"/><path d="m-353.5-551.5c3.2-4.3 6.5-8.7 9.7-13 1.7-2.2 3.3-4.5 5-6.7 1.3-1.7 3.4-3.7 3.2-6-.3-2.4-2.3-4.5-4.7-4.9-2.5-.4-5.1-.4-7.6-.5-5.4-.3-10.8-.4-16.3-.3-6.2.1-12.3.5-18.4 1-1.8.2.5 4.5 2.2 4.3 9.6-.9 19.3-1.2 29-1 2.4.1 4.8.2 7.1.3 1.1.1 2.3.1 3.4.2.6 0 1.1.1 1.7.1.3 0 .8.3 1.2.2-.4-.5-.8-1.1-1.1-1.6 0 .1-.1.2-.1.3-.1.2-.3.5-.4.7-.2.4-.5.7-.7 1-.8 1.1-1.6 2.1-2.3 3.2-1.4 1.9-2.8 3.8-4.3 5.7-3.3 4.4-6.6 8.8-9.8 13.2-1 1.5 2 5.4 3.2 3.8z"/><path d="m-337.1-581.9c.8 0 1.8-.3 1.3-1.3-.5-.9-2.2-1.3-3.2-1.3-.8 0-1.8.3-1.3 1.3.5.9 2.2 1.3 3.2 1.3z"/><path d="m-400.4-508.8c-2.5 3.1-4.9 6.2-7.4 9.3 1.4-.1 2.8-.2 4.2-.3-7.4-9.6-16.1-18-26-24.9-1.1-.7-2.4-.6-3.4.3-.8.7-1.3 2.4-.2 3.1 9.6 6.7 18.2 14.7 25.3 24 1.2 1.5 3.1 1 4.2-.3 2.5-3.1 4.9-6.2 7.4-9.3.7-.9.4-2.4-.7-2.9-1.3-.6-2.7 0-3.4 1z"/><path d="m-580.6-451.3c-9.5 5.6-10.7 17.5-15.9 26.3-1.4 2.3-3.1 4.5-5.4 6 1.2-.1 2.5-.2 3.7-.3-2.5-2.1-3-5.4-3-8.5 0-4.1.4-8.3.7-12.4.5-8.9 1-17.9 1.6-26.8.1-2-4.7-1-4.8.6-.5 9.3-1.1 18.5-1.6 27.8-.2 4.2-.7 8.4-.6 12.5.1 3.2.8 6.6 3.4 8.8 1 .8 2.8.4 3.7-.3 9.2-6.2 10.2-17.9 15.7-26.6 1.4-2.3 3.2-4.3 5.6-5.7.8-.4 1.3-1.4.4-2-1-.5-2.6.1-3.5.6z"/><path d="m-581.4-447c.7 4-1.6 8.5-5.4 10.1-.7.3.8 1.4 1 1.6.5.4 1.1.8 1.6 1 .3.1.9.5 1.2.3 4.1-1.7 6.6-6.2 5.8-10.6-.1-.3-.5-.7-.8-.9-.5-.4-1-.8-1.6-1.1-.2-.2-2-1.1-1.8-.4z"/><path d="m-603.2-408.9c.6 0 1.8-.1 1.1-.9-.6-.8-2.4-1-3.3-1-.6 0-1.8.1-1.1.9.6.8 2.3 1 3.3 1z"/><path d="m-606.2-402.8c0-3.4.3-6.9.8-10.3.2-1.3-2.7-.9-2.9.3-.5 3.4-.8 6.8-.8 10.3 0 .7.7.9 1.3.8.5 0 1.6-.4 1.6-1.1z"/><path d="m-593.7-572.4c17 5.3 34.5 8.9 52.2 10.8.7.1 1.5-.1 2-.5.4-.4.4-.9-.3-1-17.5-1.9-34.8-5.4-51.6-10.6-.7-.2-1.5-.1-2 .3-.3.1-.9.8-.3 1z"/><path d="m-615.8-556c1.9 1 3.5 2.4 4.9 4-.5-.7-1.1-1.3-1.6-2 5.4 6.6 5.9 15.5 6.8 23.7.9 9.1 1.6 18.2.1 27.3.1-.9.3-1.7.4-2.6-.6 3.4-1.4 6.7-2 10.1s-.9 6.6 0 10c.7 1.5 1.8 2.4 3.4 2.6 2.1.9 4.4 1.3 6.7 1.2 3.3.1 6.6-.2 9.8-.7 3.8-.4 7.6-1.2 11.4-2.3 2.5-.8 5.1-1.6 7.6-2.4 4.3-1.5 8.3-3.3 12.2-5.6 1.4-1 2.7-2 4.1-2.9 1.9-1.3 2.9-3.1 2.8-5.4-.8-2.9-.7-5.8-.2-8.7-.1.9-.3 1.7-.4 2.6.9-5.3 2.3-10.5 2.8-15.9.4-4.7.3-9.4 0-14.1-.3-4.8-.8-9.6-1.4-14.3-.5-4.4-1.2-8.9-3-13-1.2-2.6-2.9-4.8-4.7-7-1.4-1.6-3-3-4.9-4s-3.9-1.5-6-1.5c-2.9-.4-5.8-.4-8.7 0-3.7.3-7.4.9-11 1.9-3.9.8-7.8 1.9-11.5 3.2-2.2.9-4.5 1.8-6.7 2.7-3.5 1.5-6.7 3.5-9.6 5.9-.8.9-1.6 1.9-2.4 2.8-1.1 1.7-.7 3.2 1.1 4.4z"/><path d="m-616.1-558.8v89.5 25c-.6 2.6-.1 5 1.3 7.1.9 2.5 2.7 4.3 5.2 5.6 2.7 1.6 5.7 2.6 8.8 2.9 3.5.8 7.1 1 10.7.5 2.6-.5 5.2-1 7.9-1.4 5-1.3 9.7-3.4 14-6.3 1.7-1.4 3.4-2.9 5.1-4.3 2.8-2.7 4.6-5.9 5.4-9.7 0-29.8 0-59.7 0-89.5 0-8.3 0-16.7 0-25 .6-2.6.1-5-1.3-7.1-.9-2.5-2.7-4.3-5.2-5.6-2.7-1.6-5.7-2.6-8.8-2.9-3.5-.8-7.1-1-10.7-.5-2.6.5-5.2 1-7.9 1.4-5 1.3-9.7 3.4-14 6.3-1.7 1.4-3.4 2.9-5.1 4.3-2.7 2.7-4.5 5.9-5.4 9.7z"/><path d="m-597.2-562.2v90.2 25.4c0 1.9.6 3.4 2.2 4.6s4.1 1.7 6 1.5c2.3-.2 4.7-.9 6.5-2.4 1.4-1.2 3-2.9 3-4.8 0-30.1 0-60.1 0-90.2 0-8.5 0-16.9 0-25.4 0-1.9-.6-3.4-2.2-4.6s-4.1-1.7-6-1.5c-2.3.2-4.7.9-6.5 2.4-1.3 1.2-3 2.9-3 4.8z"/><path d="m-589.1-571.3h91.9s61.3 0 91.9 0h51.4c2.3 0 4.7-.4 6.8-1.3 1.5-.7 3.8-1.9 4.6-3.4.6-1.1 1.1-2.6 0-3.7-1.2-1.2-3.1-1.6-4.7-1.6-30.6 0-61.3 0-91.9 0s-61.3 0-91.9 0c-17.1 0-34.3 0-51.4 0-2.3 0-4.7.4-6.8 1.3-1.5.7-3.8 1.9-4.6 3.4-.6 1.1-1.1 2.6 0 3.7 1.2 1.1 3.1 1.6 4.7 1.6z"/><path d="m-558.1-534.6c22.8-1.3 45.5-2.5 68.3-3.5 22.8-1.1 45.5-2 68.3-2.9 12.8-.5 25.6-.9 38.4-1.4 7.7-.3 15.5-1.7 22.7-4.7 3.3-1.2 6.4-2.9 9.2-5 2.5-1.5 4.7-3.4 6.5-5.7.7-1.3 1.4-2.6 2.1-3.9.8-2.7.1-5-1.9-6.9-1.3-.8-2.5-1.6-3.8-2.3-3.8-1.4-7.6-2-11.7-1.9-22.8.8-45.6 1.6-68.3 2.6s-45.5 2-68.3 3.2c-12.8.7-25.6 1.3-38.4 2.1-3.8 0-7.5.4-11.2 1.3-4 .6-7.8 1.8-11.5 3.3-3.3 1.2-6.4 2.9-9.2 5-2.5 1.5-4.7 3.4-6.5 5.7-.7 1.3-1.4 2.6-2.1 3.9-.8 2.7-.1 5 1.9 6.9 1.3.8 2.5 1.6 3.8 2.3 3.8 1.4 7.7 2 11.7 1.9z"/><path d="m-544.9-530.3c17.8-.6 35.5-.9 53.3-1.1-2.1 0-4.2 0-6.3 0 21.3-.2 42.5 0 63.8.5 7.2.2 14.3-.8 21.3-2.6 3.8-.9 7.4-2.2 10.9-3.8 3.1-1.2 6-2.7 8.8-4.5 1.3-1.1 2.7-2.1 4-3.2 2-1.6 2.8-3.6 2.6-6-.6-.8-1.2-1.5-1.7-2.3-2.7-1.5-5.5-2.3-8.6-2.3-32.5-.7-65-.7-97.4 0-8.6.2-17.3.4-25.9.7-3.8.2-7.4.8-11.1 1.7-3.9.7-7.8 1.8-11.5 3.3-3.3 1.1-6.4 2.6-9.4 4.4-2.5 1.2-4.7 2.8-6.7 4.7-.8 1-1.5 2.1-2.3 3.1-.9 2.1-.5 3.8 1.4 5.2 1.2.5 2.4 1 3.5 1.5 3.7.9 7.4 1.1 11.3.7z"/><path d="m-617.1-586c.5 3.2.5 6.5.6 9.7 0-.5 0-.9 0-1.4.1 3.4.3 6.8 0 10.2-.1 1.6-.6 3.3-.6 4.9-.1 2.1.1 4.2.3 6.2.1 1.5 2.3 2.4 3.5 2.7 2 .5 4.6.3 6.5-.2 3.2-1 7.8-3.1 7.4-7.1-.1-1.1-.2-2.3-.2-3.4v1.4c0-2.2.5-4.4.7-6.6s.1-4.4.1-6.5c0-4.8 0-9.7-.7-14.5-.2-1.5-2.3-2.4-3.5-2.7-2-.5-4.6-.3-6.5.2-3.3.8-8.2 3.1-7.6 7.1z"/><path d="m-617.2-554.5c-.2 3.7.1 7.3.1 11 0 3.6-.7 7-.5 10.6.4 7.5.5 15 .5 22.5 0 1.1 2.6 1.3 3.1 1.3 2 .1 4.4-.3 6.4-.8 2-.6 4.2-1.2 5.9-2.5 1-.7 2-1.4 2-2.7 0-7.5-.1-15-.5-22.5-.2-3.6.5-7 .5-10.6.1-3.7-.3-7.3-.1-11 .1-1.1-2.7-1.3-3.1-1.3-2-.1-4.4.3-6.4.8-2 .6-4.2 1.2-5.9 2.5-1 .7-1.9 1.4-2 2.7z"/><path d="m-617.3-511.7v29.2c0 1.8.5 3.1 2 4.1 1.6 1.1 4 1.4 5.9 1.2 2.3-.3 4.7-.9 6.5-2.4 1.3-1 3.1-2.6 3.1-4.5 0-9.7 0-19.4 0-29.2 0-1.8-.5-3.1-2-4.1-1.6-1.1-4-1.4-5.9-1.2-2.3.3-4.7.9-6.5 2.4-1.3 1.1-3.1 2.7-3.1 4.5z"/><path d="m-618-478v38.6c0 1.7.5 3 2 4 1.6 1 4 1.3 5.9 1.1 2.3-.3 4.7-.9 6.6-2.3 1.3-1 3.1-2.5 3.1-4.3 0-12.9 0-25.7 0-38.6 0-1.7-.5-3-2-4-1.6-1-4-1.3-5.9-1.1-2.3.3-4.7.9-6.6 2.3-1.2.9-3.1 2.5-3.1 4.3z"/><path d="m-617.7-436.6v31.5c0 1.9.6 3.5 2.2 4.7s4.1 1.7 6 1.5c2.3-.2 4.7-.9 6.5-2.4 1.4-1.2 3-2.9 3-4.9 0-10.5 0-21 0-31.5 0-1.9-.6-3.5-2.2-4.7s-4.1-1.7-6-1.5c-2.3.2-4.7.9-6.5 2.4-1.4 1.2-3 2.9-3 4.9z"/><path d="m-598.3-407c0-.1 0-.2 0-.4 0 .3-.1.6-.1.9.1-.5.2-1 .5-1.5.1-.2.3-.4.4-.6.3-.6-.4.6 0 0 .9-1.1 1.6-2.3 2.2-3.5 1-2.3 1.6-4.7 2.4-7.1.9-2.4 1.9-4.8 2.6-7.2.7-2.5.9-5.1 2.1-7.5.5-1.1-.6-1.8-1.5-2.1-1.6-.5-4-.3-5.6 0-2.3.4-4.6 1-6.6 2.1-1.3.7-2.8 1.5-3.5 2.9-1.1 2.3-1.3 5-2.1 7.5-.8 2.6-1.9 5.1-2.8 7.7-.8 2.3-1.4 4.8-2.4 7-.1.2-.2.5-.4.7-.1.1-.7 1.1-.3.5.3-.5-.1.2-.2.3-.3.4-.6.8-.9 1.3-.8 1.2-1.2 2.2-1.2 3.7-.1 3.1 17.2.8 17.4-4.7z"/><path d="m-592.8-430.9c-.1.1-.1.1-.2.2.4-.5.7-.9 1.1-1.4-.3.3-.6.6-.9.9.5-.4 1-.8 1.6-1.2-1.4 1.1-2.9 2-4.2 3.2s-2.4 2.6-3.3 4.1c-1.7 2.6-2.6 5.6-3.8 8.5.2-.5.4-.9.6-1.4-.4.9-.7 1.9-1.3 2.7.4-.5.7-.9 1.1-1.4-.1.1-.2.3-.3.4.5-.4 1-.8 1.6-1.2-.1.1-.1.1-.2.2-1.3 1-2.9 2.2-3.2 4-.2 1.5.6 2.9 1.9 3.5 1.7.9 3.9 1.1 5.8.9 2.2-.3 4.7-.9 6.6-2.3 1.4-1.1 2.4-1.9 3.4-3.4.3-.5.5-1 .7-1.6.6-1.6 1.2-3.1 1.9-4.7-.2.5-.4.9-.6 1.4.8-2.1 1.8-4.2 3.2-6-.4.5-.7.9-1.1 1.4.5-.7 1.1-1.3 1.8-1.8-.5.4-1 .8-1.6 1.2.6-.5 1.2-.9 1.8-1.3.7-.5 1.5-1.1 2.1-1.7.7-.6 1.2-1.4 1.8-2.1.9-1.1.7-3-.1-4-1-1.3-3.3-1.8-4.8-1.8-2.3-.1-4.7.3-6.8 1.3-.6.3-1.3.7-1.9 1-1.1.5-2 1.3-2.7 2.4z"/><path d="m-605.9-403c2.3 0 4.7-.4 6.8-1.3 1.5-.7 3.8-2 4.6-3.6.6-1.2 1-2.7-.1-3.9-1.2-1.2-3.1-1.7-4.7-1.7-2.3 0-4.7.4-6.8 1.3-1.5.7-3.8 2-4.6 3.6-.6 1.2-1 2.7.1 3.9s3 1.7 4.7 1.7z"/><path d="m-611-399.3c2.4 0 4.7-.4 6.8-1.3 1.5-.7 3.8-2 4.6-3.6.6-1.2 1-2.8-.1-3.9-1.2-1.2-3.1-1.8-4.8-1.8-2.4 0-4.7.4-6.8 1.3-1.6.7-3.8 2-4.6 3.6-.6 1.2-1 2.8.1 3.9 1.3 1.3 3.2 1.8 4.8 1.8z"/><path d="m-582.5-421.6c.6-1-.6.5.2-.3.1-.1.2-.2.3-.3-.9.8-2 1.4-3.2 1.7-3.9-.2-7.7-.4-11.6-.6-.8 1.3-1.5 2.7-2.3 4-.6 1 .7 1.7 1.5 1.9 1.5.4 3 .2 4.5 0 3.5-.4 7.9-1.5 10.5-4.1 3-2.8 5.4-6.3 7.9-9.5.2-.2.2-.2 0 0 .2-.2.4-.5.6-.7.3-.4.6-.7.9-1.1.6-.8 1.2-1.6 1.9-2.3 1.3-1.6 2.7-3.2 4.1-4.7-5.5.7-11 1.4-16.5 2.1-.9 3.1-2.4 6-4.3 8.6-.8 1 .9 1.8 1.5 1.9 1.5.4 3 .2 4.5 0 1.9-.2 3.9-.7 5.7-1.4 1.6-.6 3.8-1.3 4.8-2.7 1.4-1.8 2.9-3.6 4.6-5.2 1.6-1.6 3.3-3 4.4-5.1 1-1.9 2.1-3.7 3.4-5.4.1-.1 1.1-1.4.5-.7.3-.3.5-.6.8-.9.4-.4.7-.7 1.1-1.1.5-.4.4-.3-.3.2.6-.4.4-.3-.6.3-4.5.1-9.1.2-13.6.2-1.2 2.5-2.5 4.9-3.8 7.2-.6 1.1.7 1.7 1.5 1.9 1.6.5 3.9.2 5.5-.1 2.3-.4 4.6-1 6.6-2.1 1.3-.7 2.8-1.4 3.5-2.8 1.4-2.4 2.7-4.8 3.8-7.2 1-2-3-2.1-3.9-2.1-3.2.1-6.9.8-9.7 2.4-2.7 1.5-5 3.1-6.9 5.5-1.5 2-3.1 4-4.3 6.2-.5.9-.8 1.8-1.4 2.6.5-.7-.5.5-.7.6-.4.4-.9.8-1.3 1.2-1.8 1.7-3.4 3.5-4.9 5.5 5.5-.7 11-1.4 16.5-2.1 2-2.6 3.4-5.4 4.3-8.6.8-2.8-4.7-2.1-5.9-2-1.9.2-3.9.7-5.7 1.4-1.7.6-3.6 1.4-4.8 2.7-2.9 3-5.5 6.3-8.1 9.6-.7.9-1.3 1.8-2 2.6-.3.4-.5.7-.8 1.1.4-.6-.4.5-.5.7-1.2 1.6-2.5 3-4 4.4 5.5-.7 11-1.4 16.5-2.1.8-1.3 1.5-2.7 2.3-4 1-1.7-2.1-2.1-3-2.1-2.8-.2-6 .5-8.7 1.5-3.3 1.3-6.5 2.9-8.4 6-.6 1.1.7 1.7 1.5 1.9 1.6.5 3.9.2 5.5-.1 2.3-.4 4.6-1 6.6-2.1 1.2-.4 2.6-1.1 3.4-2.4z"/><path d="m-551.1-450.4c.1-.6.3-1.1.5-1.7-.2.5-.4 1-.5 1.5 1-2.7 2.6-5.2 3.7-7.9 1.4-3.1 2.3-6.4 3.3-9.6.9-2.9 1.9-5.7 2.7-8.6.9-3.5 1.1-7 .6-10.5-.2-1.6-2.3-2.7-3.6-3.2-2-.6-4.6-.5-6.6.1-3.5 1-7.8 3.5-7.2 7.8.1.6.1 1.2.2 1.8 0-.5-.1-1-.1-1.5.1 3.7-.8 7.2-1.9 10.7-1.1 3.4-2.1 6.9-3.2 10.2.2-.5.4-1 .5-1.5-1.7 4.8-4.6 9-5.9 14-.4 1.6.8 3.2 2 4 1.6 1 4 1.3 5.9 1.1 3.9-.5 8.6-2.4 9.6-6.7z"/><path d="m-603.2-584.3c2.2 0 4.7-.6 6.8-1.4 1.5-.6 3.8-1.7 4.7-3.1 2.2-3.3-1.9-4.3-4.5-4.3-2.2 0-4.7.6-6.8 1.4-1.5.6-3.8 1.7-4.7 3.1-2.3 3.3 1.9 4.3 4.5 4.3z"/><path d="m-618.3-601.4 1 218.2 151.8-148.3 56.7 53.2 87.3-87.6.4-35.5z"/></svg>