<svg enable-background="new 0 0 1000 1000" viewBox="0 0 1000 1000" xmlns="http://www.w3.org/2000/svg" xmlns:xlink="http://www.w3.org/1999/xlink"><linearGradient id="a" gradientUnits="userSpaceOnUse" x1="4.8986" x2="995.1014" y1="500" y2="500"><stop offset="0" stop-color="#514c9b"/><stop offset=".3176" stop-color="#3461ab"/><stop offset="1" stop-color="#47baba"/></linearGradient><path d="m988.09 408.53c-11.29-65.73-36.29-128.6-72.2-183.86-36-55.22-82.97-102.82-137.15-138.98-27.1-18.06-55.96-33.28-85.94-45.41-30.02-12.04-61.15-20.96-92.71-26.74l-1.39 6.25c30.62 8.1 60.31 19.21 88.48 33.11 28.22 13.8 54.94 30.4 79.61 49.48 24.66 19.08 47.44 40.44 67.73 63.85 20.32 23.38 38.16 48.77 53.4 75.51 15.25 26.73 27.81 54.9 37.35 83.97 4.78 14.53 8.82 29.28 12.1 44.16 3.28 14.89 5.8 29.92 7.68 45 3.69 30.17 4.3 60.64 1.86 90.79-1.22 15.08-3.2 30.08-5.92 44.93-2.71 14.85-6.19 29.61-10.39 43.88-4.22 14.33-9.23 28.43-15.17 42.12-5.9 13.71-12.52 27.1-19.91 40.04-7.37 12.96-15.44 25.51-24.07 37.65-8.65 12.13-17.9 23.82-27.6 35.12-19.42 22.58-40.71 43.55-63.42 62.94-22.72 19.38-46.9 37.17-72.35 53.16-42.14 26.36-87.86 47.58-135.94 62.66 18.06-19.73 31.36-44.31 37.6-72.29 1.38-6.19 2.37-12.37 3-18.52 2.03-11.05 2.23-22.99.16-35.88-1.75-10.89-4.31-21.01-7.57-30.38-.06-.18-.12-.36-.18-.55-.13-.37-.26-.75-.39-1.12-17.44-49.96-59.53-90.03-114.98-102.4-65.45-14.6-130.48 13.66-165.77 66.14-116.42-27.56-296.69-229.74-180.1-432.7 14.87 13.61 38.11 18.54 71.99 17 51.72-2.35 93.74-39.87 93.74-89.05s-41.97-89.05-93.74-89.05-93.74 39.87-93.74 89.05c0 24.75 3.26 43.6 10.62 57.48.45 14.31-31.39 44.94-43.33 64.8-12.98 21.58-147.8 177.39-48.01 391.85 11.48 24.67 24.71 46.59 39.16 66.1l-.05-.02s132.23 214.42 463.95 172.41c1.66-.16 3.32-.3 4.99-.48 22.03-2.46 43.92-6.44 65.52-11.8 3.13-.69 6.27-1.4 9.43-2.13l-.53-.14c40.16-10.74 79.19-26.35 115.96-46.34 29.61-16.05 57.76-35.03 83.68-56.81 25.92-21.77 49.59-46.34 70.36-73.19 41.52-53.74 71.57-116.32 87.48-182.11 3.98-16.51 6.95-32.99 9.22-49.6 2.24-16.61 3.65-33.33 4.21-50.06 1.13-33.48-1.13-66.99-6.73-99.84z" fill="url(#a)"/><g fill="#514c9b"><path d="m468.81 582.75c32.3 20.22 68.73 6.52 79.7-29.98 9.73-32.39-4.63-71.08-33.44-90.11-31.77-20.98-68.67-8.09-80.36 28.06-10.63 32.86 4.4 73.43 34.1 92.03z"/><path d="m237.36 398.79c-34.35 3.68-65.28 33.94-70.16 68.63-5.31 37.74 22.04 65.43 59.85 60.58 33.55-4.3 63.04-33.18 68.68-67.25 6.21-37.55-20.59-66.01-58.37-61.96z"/><path d="m341.01 643.13c19.13 3.28 35.96-1.74 37.59-11.23s-12.56-19.84-31.7-23.12c-19.13-3.28-35.96 1.74-37.59 11.23s12.57 19.84 31.7 23.12z"/></g></svg>