<svg enable-background="new 0 0 600 600" viewBox="0 0 600 600" xmlns="http://www.w3.org/2000/svg" xmlns:xlink="http://www.w3.org/1999/xlink"><radialGradient id="a" cx="-103.5156" cy="15.6169" gradientTransform="matrix(1.7603 0 0 1 -71.31 0)" gradientUnits="userSpaceOnUse" r="49.5749"><stop offset="0" stop-color="#75f8d2"/><stop offset=".4214" stop-color="#4eede8"/><stop offset=".7852" stop-color="#34e6f6"/><stop offset="1" stop-color="#2ae3fc"/></radialGradient><linearGradient id="b" gradientUnits="userSpaceOnUse" x1="-446.2263" x2="-409.89" y1="16.87" y2="16.87"><stop offset="0" stop-color="#6b3bf3"/><stop offset=".3176" stop-color="#0063e9"/><stop offset="1" stop-color="#16cdc5"/></linearGradient><path d="m-860.5 100h749.4v500h-749.4z" fill="#f6f6f6"/><path d="m-812 428.7 17.3-18 16.9 18" fill="none" stroke="#1d1d1b" stroke-miterlimit="10" stroke-width="2"/><path d="m-807.1 433.3v13.9h25.2v-13.9" fill="none" stroke="#1d1d1b" stroke-miterlimit="10" stroke-width="2"/><path d="m-836.7 409.3v39" fill="none" stroke="#1d1d1b" stroke-miterlimit="10" stroke-width="2"/><path d="m-817.3 428.8h-38.9" fill="none" stroke="#1d1d1b" stroke-miterlimit="10" stroke-width="2"/><circle cx="-673.2" cy="442" fill="#1d1d1b" r="5.6" stroke="#1d1d1b" stroke-miterlimit="10" stroke-width="2"/><circle cx="-673.2" cy="416.8" fill="#1d1d1b" r="5.6" stroke="#1d1d1b" stroke-miterlimit="10" stroke-width="2"/><path d="m-690.6 429.3c0 3.1-2.5 5.6-5.6 5.6s-5.6-2.5-5.6-5.6 2.5-5.6 5.6-5.6 5.6 2.5 5.6 5.6z" fill="#1d1d1b" stroke="#1d1d1b" stroke-miterlimit="10" stroke-width="2"/><path d="m-691.5 426.4 12.9-7" fill="none" stroke="#1d1d1b" stroke-miterlimit="10" stroke-width="2"/><path d="m-690.6 432.8 12.5 6.5" fill="none" stroke="#1d1d1b" stroke-miterlimit="10" stroke-width="2"/><path d="m-631.4 416.3-2.6 3h7" fill="#1d1d1b"/><path d="m-627.5 419.3h1.6v-9l-5.7 6.3" fill="#1d1d1b"/><path d="m-630.4 415.6c-2.2-1.3-4.6-2.1-7.3-2.3-8-.5-14.9 4.8-16.9 12.2 2.3-7 9.1-11.9 16.8-11.4 2.5.2 4.8.9 6.9 2" fill="#1d1d1b"/><path d="m-630.9 416.4c-2-1.3-4.3-2-6.7-2.3-2.4-.2-4.8.1-7.1 1-2.2.9-4.3 2.3-5.9 4.1-1.7 1.8-2.8 4-3.5 6.4l-.9-.3c.8-2.3 2.1-4.5 3.9-6.3.8-.9 1.8-1.7 2.8-2.4s2.1-1.3 3.3-1.7c2.3-.9 4.8-1.2 7.2-1s4.8.9 6.9 2.1c-2.1-1.1-4.5-1.8-6.9-1.9s-4.8.3-7 1.3c-1.1.4-2.1 1.1-3.1 1.7-.9.7-1.9 1.5-2.7 2.4-1.6 1.7-2.8 3.9-3.5 6.1l-.9-.3c.6-2.5 1.8-4.9 3.5-6.9s3.9-3.6 6.3-4.7c2.4-1 5.1-1.5 7.8-1.4s5.3.9 7.6 2.3z" fill="#1d1d1b"/><path d="m-644.9 443.5 2.6-2.9h-7" fill="#1d1d1b"/><path d="m-648.8 440.6h-1.6v9l5.7-6.4" fill="#1d1d1b"/><path d="m-645.9 444.2c2.2 1.3 4.6 2.1 7.3 2.3 8 .5 14.9-4.8 16.9-12.2-2.3 7-9.1 11.9-16.8 11.4-2.5-.2-4.8-.9-6.9-2" fill="#1d1d1b"/><path d="m-645.4 443.4c2 1.3 4.3 2 6.7 2.3 2.4.2 4.8-.1 7.1-1 2.2-.9 4.3-2.3 5.9-4.1 1.7-1.8 2.8-4 3.5-6.4l.9.3c-.8 2.3-2.1 4.5-3.9 6.3-.8.9-1.8 1.7-2.8 2.4s-2.1 1.3-3.3 1.7c-2.3.9-4.8 1.2-7.2 1s-4.8-.9-6.9-2.1c2.1 1.1 4.5 1.8 6.9 1.9s4.8-.3 7-1.3c1.1-.4 2.1-1.1 3.1-1.7.9-.7 1.9-1.5 2.7-2.4 1.6-1.7 2.8-3.9 3.5-6.1l.9.3c-.6 2.5-1.8 4.9-3.5 6.9s-3.9 3.6-6.3 4.7c-2.4 1-5.1 1.5-7.8 1.4s-5.3-.9-7.6-2.3z" fill="#1d1d1b"/><path d="m-146.2 507.4h-47.7c-2.2 0-3.9-1.8-3.9-3.9v-30.9c0-2.2 1.8-3.9 3.9-3.9h47.7c2.2 0 3.9 1.8 3.9 3.9v30.9c0 2.1-1.7 3.9-3.9 3.9z" fill="#fff"/><path d="m-181.2 468.1.8-1.6c.4-.8.6-1.6.8-2.5.5-2.6 2.8-4.5 5.5-4.5h8c2.8 0 5.1 2 5.5 4.6.1.8.3 1.5.7 2.2l1.1 2" fill="#fff"/><path d="m-181.4 469.8 1.2-2c.4-.8.6-1.8.8-2.7.5-2.8 2.8-4.9 5.5-4.9h7.9c2.8 0 5 2.2 5.5 5.1.1.8.3 1.7.7 2.4l1.1 2.2" fill="#fff"/><path d="m-165.6 478.3-1.9 2.1h5" fill="#1d1d1b"/><path d="m-162.8 480.4h1.2v-6.5l-4.2 4.6" fill="#1d1d1b"/><path d="m-164.9 477.8c-1.6-.9-3.3-1.5-5.3-1.6-5.7-.4-10.8 3.4-12.2 8.8 1.6-5.1 6.6-8.6 12.1-8.2 1.8.1 3.5.6 5 1.4" fill="#1d1d1b"/><path d="m-165.4 478.6c-1.4-.9-3-1.5-4.7-1.6-1.7-.2-3.4.1-5 .7s-3.1 1.6-4.2 2.9c-1.2 1.3-2 2.8-2.5 4.5l-.9-.3c.6-1.7 1.6-3.3 2.9-4.6s2.8-2.3 4.5-2.9 3.5-.9 5.2-.7c1.8.1 3.5.7 5 1.6-1.6-.8-3.3-1.3-5-1.3s-3.5.2-5 .9c-1.6.7-3 1.7-4.1 3s-2 2.8-2.5 4.4l-.9-.3c.5-1.8 1.3-3.6 2.5-5.1s2.8-2.7 4.6-3.4c1.8-.8 3.7-1.1 5.7-1s3.9.7 5.6 1.6z" fill="#1d1d1b"/><path d="m-175.4 497.9 1.9-2.1h-5" fill="#1d1d1b"/><path d="m-178.2 495.8h-1.1v6.5l4.1-4.6" fill="#1d1d1b"/><path d="m-176.1 498.4c1.6.9 3.3 1.5 5.3 1.6 5.7.4 10.8-3.4 12.2-8.8-1.6 5.1-6.6 8.6-12.1 8.2-1.8-.1-3.5-.6-5-1.4" fill="#1d1d1b"/><path d="m-175.6 497.6c1.4.9 3 1.5 4.7 1.6 1.7.2 3.4-.1 5-.7s3.1-1.6 4.2-2.9c1.2-1.3 2-2.8 2.5-4.5l.9.3c-.6 1.7-1.6 3.3-2.9 4.6s-2.8 2.3-4.5 2.9-3.5.9-5.2.7c-1.8-.1-3.5-.7-5-1.6 1.6.8 3.3 1.3 5 1.3s3.5-.2 5-.9c1.6-.7 3-1.7 4.1-3s2-2.8 2.5-4.4l.9.3c-.5 1.8-1.3 3.6-2.5 5.1s-2.8 2.7-4.6 3.4c-1.8.8-3.7 1.1-5.7 1s-3.9-.7-5.6-1.6z" fill="#1d1d1b"/><path d="m-723.6 447.8c-3.1 0-6.1-1.3-8.3-3.6-2.3.6-4.9.9-7.5.9-6.7 0-12.4-2-16.5-5.6-1.8-1.7-3.2-3.6-4.2-5.9-.9-2.1-1.4-4.4-1.4-6.7 0-4.8 2-9.3 5.6-12.6 4-3.7 9.7-5.6 16.5-5.6 5.4 0 10.3 1.5 14.3 4.4 3.6 2.6 6.3 6.3 7.4 10.3.9 3.3.8 6.8-.4 9.8-1.2 3.1-3.5 5.8-6.6 7.8.2 1.7.9 3.2 2.1 4.4l2.2 2.2h-3.2zm-15.8-36.9c-6.3 0-11.5 1.8-15.1 5.1-3.2 2.9-4.9 6.8-4.9 11 0 7.7 6.3 16.1 20 16.1 2.6 0 5.4-.4 7.7-1.1l.8-.3.6.7c1.1 1.3 2.6 2.3 4.2 2.9-.7-1.3-1-2.8-1.1-4.4v-.8l.7-.4c6-3.6 8.5-9.4 6.8-15.6-1.8-6.6-8.6-13.2-19.7-13.2z" fill="#1d1d1b"/><path d="m-585.6 448.6c-.6 0-1.2-.2-1.7-.6-1.8-1.5-3.5-3-5-4.3-4.4-3.8-8.2-7-10.9-10.2-3-3.6-4.3-7-4.3-10.7 0-3.6 1.2-6.9 3.5-9.3 2.3-2.5 5.4-3.8 8.7-3.8 2.5 0 4.8.8 6.9 2.4 1 .8 2 1.8 2.8 2.9.8-1.1 1.8-2.1 2.8-2.9 2-1.6 4.3-2.4 6.9-2.4 3.4 0 6.5 1.4 8.7 3.8s3.5 5.7 3.5 9.3c0 3.7-1.4 7.1-4.3 10.7-2.6 3.2-6.5 6.4-10.9 10.2-1.5 1.3-3.2 2.7-5 4.3-.5.4-1.1.6-1.7.6zm-10.1-37.1c-2.8 0-5.3 1.1-7.2 3.1s-2.9 4.8-2.9 7.9c0 3.2 1.2 6.1 3.9 9.4 2.6 3.2 6.5 6.5 11 10.3 1.6 1.3 3.4 2.9 5.2 4.5 1.9-1.6 3.7-3.1 5.2-4.5 4.5-3.8 8.4-7.1 11-10.3 2.7-3.3 3.9-6.2 3.9-9.4 0-3.1-1-5.9-2.9-7.9-1.8-2-4.4-3.1-7.2-3.1-2 0-3.9.6-5.5 1.9-1.5 1.1-2.5 2.6-3.1 3.6-.3.5-.8.8-1.4.8s-1.1-.3-1.4-.8c-.6-1-1.6-2.4-3.1-3.6-1.6-1.2-3.4-1.9-5.5-1.9z"/><path d="m-532.3 423c.2.1.5.1.7.2.5.2.7.5.5 1-1.3 2.7-2.6 5.3-4.6 7.5-4.1 4.8-9.3 7.7-15.6 8.7-.4.1-.7.2-.8.6-.8 2-1.6 4-2.3 6-.3.7-.5 1-1 .9s-.6-.5-.3-1.3c.7-2.3 1.5-4.5 2.6-6.7.1-.2.1-.5.1-.7 0-4.2.9-8.2 2.8-11.9 2.2-4.3 5.4-7.7 9.6-10.2 4.1-2.5 8.2-5 12.4-7.6.2-.1.4-.2.6-.2.5 0 .7.4.6 1.1-.4 1.5-.7 3-1.1 4.5-.5 2-1 4-1.5 6-.1.4-.3.7-.7.9-.7.3-1.4.7-2.1 1 .1.2.1.2.1.2zm-.3 1.3c-.6-.1-1.1-.3-1.7-.4-.4-.1-.7-.2-.7-.6-.1-.4.2-.6.6-.8 1.1-.5 2.2-1.1 3.3-1.7.2-.1.4-.3.4-.6.7-2.8 1.4-5.5 2.1-8.3 0-.1 0-.2 0-.4-.1.1-.2.1-.3.2-3.6 2.2-7.2 4.4-10.8 6.6-6.5 4-10.3 9.8-11.6 17.3-.1.5-.1 1-.2 1.4.2 0 .2-.1.3-.2 1.2-1.7 2.5-3.3 3.7-5 .4-.5.8-.5 1.1-.2s.3.6-.1 1.1c-1 1.3-2 2.5-2.9 3.8-.6.8-1 1.6-1.6 2.5 3.6-.6 6.8-2 9.6-3.9 4-2.7 6.8-6.3 8.8-10.8z"/><path d="m-541.9 446.6c.5-.4 1.1-.7 1.5-1.1 1.3-1.4 2.6-2.8 3.9-4.2.2-.3.4-.5.7-.8 1.8-2 4.5-1.3 5.6.4.6 1 .9 2 1 3.1 0 .4.2.9.4 1.3s.6.5 1 .3c.2-.1.5-.3.7-.4.4-.2.7-.5 1.1-.7 1.1-.5 2-.4 2.7.6.8 1.1 1.8 1.4 3 1.4h2.5c.5 0 .8.3.8.7 0 .5-.3.7-.8.6-1.3-.1-2.6-.1-3.9-.2-1-.1-1.8-.7-2.4-1.5s-.9-.8-1.8-.3c-.3.2-.6.4-.9.6-1.6 1-3.3.3-3.6-1.6-.1-.5-.1-1.1-.2-1.6-.2-.6-.4-1.3-.7-1.9-.9-1.3-2.4-1.4-3.5-.2-.8.9-1.6 1.9-2.4 2.9-1.1 1.2-2.2 2.3-3.6 3.1-.8.5-1.7.3-2.2-.4-.2-.2-.2-.5-.3-.8-.3-.8-.9-1.3-1.7-1.1-.7.2-1.3.6-1.9.9-.7.4-1.2 1-1.9 1.4-1 .6-2.1 1-3.2.6-.2-.1-.4-.1-.5-.2-.3-.2-.4-.5-.3-.8.2-.4.5-.5.8-.3 1.1.5 2 .1 2.9-.6.7-.5 1.3-1 2-1.5 1-.7 2-1 3.2-.7.9.2 1.6.8 1.9 1.7-.2.6-.1.9.1 1.3z"/><path d="m-530.9 372.6c.2.1.5.1.7.2.5.2.7.5.5 1-1.3 2.7-2.6 5.3-4.6 7.5-4.1 4.8-9.3 7.7-15.6 8.7-.4.1-.7.2-.8.6-.8 2-1.6 4-2.3 6-.3.7-.5 1-1 .9s-.6-.5-.3-1.3c.7-2.3 1.5-4.5 2.6-6.7.1-.2.1-.5.1-.7 0-4.2.9-8.2 2.8-11.9 2.2-4.3 5.4-7.7 9.6-10.2 4.1-2.5 8.2-5 12.4-7.6.2-.1.4-.2.6-.2.5 0 .7.4.6 1.1-.4 1.5-.7 3-1.1 4.5-.5 2-1 4-1.5 6-.1.4-.3.7-.7.9-.7.3-1.4.7-2.1 1 .1.1.1.2.1.2zm-.4 1.3c-.6-.1-1.1-.3-1.7-.4-.4-.1-.7-.2-.7-.6-.1-.4.2-.6.6-.8 1.1-.5 2.2-1.1 3.3-1.7.2-.1.4-.3.4-.6.7-2.8 1.4-5.5 2.1-8.3 0-.1 0-.2 0-.4-.1.1-.2.1-.3.2-3.6 2.2-7.2 4.4-10.8 6.6-6.5 4-10.3 9.8-11.6 17.3-.1.5-.1 1-.2 1.4.2 0 .2-.1.3-.2 1.2-1.7 2.5-3.3 3.7-5 .4-.5.8-.5 1.1-.2s.3.6-.1 1.1c-1 1.3-2 2.5-2.9 3.8-.6.8-1 1.6-1.6 2.5 3.6-.6 6.8-2 9.6-3.9 4.1-2.7 6.9-6.3 8.8-10.8z"/><path d="m-540.6 396.1c.5-.4 1.1-.7 1.5-1.1 1.3-1.4 2.6-2.8 3.9-4.2.2-.3.4-.5.7-.8 1.8-2 4.5-1.3 5.6.4.6 1 .9 2 1 3.1 0 .4.2.9.4 1.3s.6.5 1 .3c.2-.1.5-.3.7-.4.4-.2.7-.5 1.1-.7 1.1-.5 2-.4 2.7.6.8 1.1 1.8 1.4 3 1.4h2.5c.5 0 .8.3.8.7 0 .5-.3.7-.8.6-1.3-.1-2.6-.1-3.9-.2-1-.1-1.8-.7-2.4-1.5s-.9-.8-1.8-.3c-.3.2-.6.4-.9.6-1.6 1-3.3.3-3.6-1.6-.1-.5-.1-1.1-.2-1.6-.2-.6-.4-1.3-.7-1.9-.9-1.3-2.4-1.4-3.5-.2-.8.9-1.6 1.9-2.4 2.9-1.1 1.2-2.2 2.3-3.6 3.1-.8.5-1.7.3-2.2-.4-.2-.2-.2-.5-.3-.8-.3-.8-.9-1.3-1.7-1.1-.7.2-1.3.6-1.9.9-.7.4-1.2 1-1.9 1.4-1 .6-2.1 1-3.2.6-.2-.1-.4-.1-.5-.2-.3-.2-.4-.5-.3-.8.2-.4.5-.5.8-.3 1.1.5 2 .1 2.9-.6.7-.5 1.3-1 2-1.5 1-.7 2-1 3.2-.7.9.2 1.6.8 1.9 1.7-.1.7 0 .9.1 1.3z"/><path d="m-505 410.9h46.6v36.8h-46.6z" fill="none" stroke="#000" stroke-miterlimit="10" stroke-width="2"/><path d="m-370.2 410.2h50.5v36.8h-50.5z" fill="none" stroke="#000" stroke-miterlimit="10" stroke-width="2"/><path d="m-504.8 443.4 23.8-22.7 9 8.4" fill="none" stroke="#000" stroke-miterlimit="10" stroke-width="2"/><path d="m-479.7 436.9 21.3-21.5" fill="none" stroke="#000" stroke-miterlimit="10" stroke-width="2"/><path d="m-442.6 410.2h48.3v37.5h-48.3z" fill="none" stroke="#000" stroke-miterlimit="10" stroke-width="2"/><path d="m-424.2 429c0-2.1 0-4.3 0-6.4 0-.5.1-.9.5-1.2.5-.2.9-.1 1.3.2 3 2.1 6 4.3 9 6.4.9.6.9 1.3 0 2-3 2.1-6 4.3-9 6.4-.4.3-.8.5-1.2.2-.5-.2-.6-.7-.6-1.1.1-2.2 0-4.4 0-6.5zm2.1 4.7c2.3-1.6 4.4-3.2 6.7-4.7-2.2-1.6-4.4-3.1-6.7-4.7z"/><path d="m-350.7 443.8h11.4v13.9h-11.4z" fill="#f6f6f6" transform="matrix(0 1 -1 0 105.7999 795.6917)"/><path d="m-336.3 447.1h-1.7l-6.8 7.2-7.1-7.2h-1.7" fill="none" stroke="#000" stroke-miterlimit="10" stroke-width="2"/><path d="m-754.3 415.3c-2.1 4.9-1.6 11.1-5.1 15.4.9-.2 1.8-.4 2.7-.6-1.7-2.2-1.8-5.5 0-7.7 1.8-2.3 4.8-3.6 5.1-6.8.1-.7-2.5.1-2.8.4-1.5 2.1-2.7 4.3-3.7 6.6 1-.2 1.9-.4 2.9-.6-.6-1.2-.7-2.5-.3-3.7-1 .2-1.9.4-2.9.6.3 2.6.4 5.2.1 7.8 1-.2 1.9-.4 2.9-.6-.7-1.2-1.2-2.4-1.5-3.7-.2-.8-3-.1-2.9.8.1 1.9.3 3.9.6 5.8.1.8 2.9.1 2.9-.8 0-2.8 0-5.6.7-8.2.4-1.3.9-2.6 1.6-3.6.3-.4.7-.9 1.2-1 .6-.2 1.5-.1 2.1-.2h2.2c.4 0 .6 0 .8.3.1.2.1.6.2.9.2 1.6.5 3.1.7 4.7.5 3.2 1 6.4 1.4 9.6.1.7 3 .1 2.9-.8-.4-2.9-.9-5.9-1.3-8.8-.2-1.5-.5-3-.7-4.6-.2-1.2-.1-2.5-1.5-2.7-1.3-.2-2.8-.1-4.1 0-1.4.1-2.9.2-4.2.8-2.3 1-3.5 3.5-4.2 5.8-.8 2.8-.8 5.7-.8 8.5 1-.3 1.9-.5 2.9-.8-.3-1.9-.5-3.8-.6-5.8-1 .3-1.9.5-2.9.8.3 1.3.8 2.6 1.5 3.7.3.4 1 .3 1.4.2.3-.1 1.4-.3 1.5-.8.2-2.7.2-5.4-.1-8.1-.1-.8-2.7 0-2.9.6-.4 1.4-.3 2.8.3 4.1.4.8 2.6 0 2.9-.6.9-2.2 2-4.3 3.4-6.3-.9.1-1.8.3-2.8.4-.3 3.2-4.1 4.6-5.5 7.2-1.3 2.4-1 5.4.7 7.6.2.3 1.1.1 1.3.1.4-.1 1.1-.3 1.4-.6 3.6-4.5 3.2-10.6 5.4-15.7.2-.5-1-.4-1.2-.4-.5.1-1.5.3-1.7.8z" fill="#1d1d1b"/><path d="m-752 414.2c3-.6 6.1-1.2 9.1-1.7 2.7-.5 5.7-.5 7.8 1.6 1.8 1.8 2.1 4.8 2.6 7.2.7 3.2 1.3 6.3 2 9.5.1.5 3-.1 2.9-.8-.7-3.4-1.5-6.9-2.2-10.3-.6-2.6-1-5.6-3.4-7.2-2.3-1.6-5.3-1.5-8-1.1-3.5.5-6.9 1.3-10.3 1.9-.3.1-1.7.3-1.7.8.1.3.9.2 1.2.1z" fill="#1d1d1b"/><path d="m-729.7 424.8c.5-.1-.1 0 .2 0 .1 0 .2 0 .3-.1.2 0 .5-.1.7-.1.5-.1.8-.1 1.3-.1.8 0 1.6.3 2.1.9 1.2 1.2 1.3 3.2 1.1 4.8-.1.9-.2 1.9-.6 2.7-.1.3-.3.6-.5.8-.1.1-.2.1-.2.2 0 0 0 0-.1 0 .1 0 .1 0 .2-.1-.1 0-.1 0-.2 0-1.8 0-3.2-2-3.9-3.4-.5-1-.8-2.1-.9-3.2 0-.5 0-1.1.1-1.6.1-.3.1-.5.2-.8 0-.1.1-.2.1-.3.1-.1.3-.4.1-.2-.2.1-.5.2-.7.3h.1c-.3 0-.5.1-.8.1h.1c-.2 0-.4-.1-.6-.1.3.1.4.6.6.8.2.4.4.8.5 1.2.3.8.4 1.7.4 2.6 0 .2.4.4.6.4.3.1.7 0 1.1-.1.5-.1 1.3-.5 1.3-1.1 0-1.6-.5-3.1-1.3-4.5-.2-.3-.4-.6-.7-.8-.6-.3-1.3-.2-1.9.1-.9.3-1.4 1-1.8 1.9-1.1 2.7.1 6.1 1.9 8.2 1 1.2 2.3 1.9 3.9 2.1 1.7.1 3.6-.5 4.7-1.9.8-1.1 1-2.5 1.1-3.8s.1-2.7-.3-3.9c-1.4-3.6-5.6-3.2-8.7-2.6-.4.1-1.4.5-1.3 1.1.3.7 1.4.5 1.8.5z" fill="#1d1d1b"/><path d="m-723.6 429.6c2.6-6.3 1.6-13.4-4.9-16.8s-15.2-2.1-21.7.6c2.5 1.4 4.9 2.8 7.4 4.2-.1-.2-.1-.4-.2-.6-.2 1.5-.4 3.1-.6 4.6-1.8 2.5 2.9-1 .2 3.2-.4 2-1.8 3-4.1 3.1 2-1 2.5-2.1 1.2-3.2-.5-6.9-9.4-8-11.8-1.6-2.3 6.1-1.8 12.5 3.8 16.5 5.4 3.9 12 4.6 18.4 3.3 7.6-1.5 4.4-13.1-3.2-11.6-2.1.4-4.3.4-6.3-.5-2.6-1.1-2-2.1-1.1-4.5-3.9-.5-7.9-1.1-11.8-1.6.5 6.7 4.7 12.6 11.9 12.9 6.7.3 11.4-4.3 10.7-11-.6-5.9-5.8-10.5-11.9-8.6-5.9 1.9-8.3 8.8-6.1 14.2 2.4 5.8 9.4 8.5 15 5.5 5.4-2.8 8.2-10.6 7.9-16.3-.4-6.4-4.9-11.1-11.4-10.9-5.8.1-14.3 3.1-12.1 10.4.8 2.8 4.3 5.4 7.4 4.2 2.8-1.1 5.6-2.1 8.7-2.1.8 0 3-.2 3.6.3 1 .9.2 1.7-.4 3.3-3.1 6.9 8.5 10 11.4 3z" fill="#1d1d1b"/><path d="m-737.1 443c4-.3 7.9-1.1 11.4-3.1 1.7-1 3.1-2.4 3.9-4.1.5-1 .6-2.1.7-3.2.1-.4.4-1.2.2-.9-.7.7-1.4 1.4-2.2 2.2.1 0 .2-.1.3-.1-2 0-4 0-6.1 0 .1.1.2.1.3.2-.7-.7-1.4-1.4-2.2-2.2-.2-.4-.4-.7-.6-1.1.3-1 .5-2 .8-3-.1.3-.2.5-.3.8-1.3 3-.9 6.4 2.2 8.2 2.7 1.6 6.7.7 8.2-2.2 2.8-5.4 1.9-13.8-3.2-17.7-2.9-2.2-6.9-2.2-9.5.4-1.2 1.1-1.8 2.5-2.2 4.1-.3 1.1-.2 1.9-1 2.7-5.2 5.7 3.3 14.2 8.5 8.5 2.6-2.9 3.2-5.7 4.4-9.2-.5.9-1 1.8-1.5 2.6.2-.2.4-.3.6-.5-1.4.6-2.8 1.2-4.2 1.8.2 0 .5 0 .7-.1-1-.3-2-.5-3-.8-1-.5-.3-.1 0 1 .1.5-.1 1.7.1 1.1 3.5 2 6.9 4 10.4 6.1 2-4.4 1.4-11-4.5-11.8-2.6-.3-5.1.9-6.4 3.2-1.2 2-1.1 3.9-1.7 6 .5-.9 1-1.8 1.5-2.6-1.1 1.3-4 1.7-5.6 1.8-3.2.3-6 2.6-6 6 0 2.9 2.7 6.1 6 5.9z" fill="#1d1d1b"/><path d="m-730.5 442.6c.9 1 1.8 2.2 2.5 3.4.1.2.6.3.8.3.3 0 .6-.1.9-.2s.6-.2.8-.4.4-.4.3-.7c-.5-1.5-.7-3.1-.7-4.7v.2c0-.1 0-.1 0-.2 0-.2 0-.3-.1-.4-.2-.2-.4-.2-.6-.3-.6-.1-1.1.1-1.6.4-.8.5-1.7 1-2.5 1.5-.4.2-.9.9-.2 1.2.6.3 1.5.1 2.1-.3.8-.5 1.7-1 2.5-1.5-.8-.1-1.6-.2-2.4-.3 0 1.7.2 3.5.7 5.1.9-.3 1.9-.6 2.8-1-.7-1.2-1.5-2.4-2.5-3.4-.2-.2-.5-.3-.8-.3-.4 0-.8.1-1.1.2-.5.3-1.3.9-.9 1.4z" fill="#1d1d1b"/><path d="m-265.9 407.7c0-.1 0-.1 0 0 0-.1 0-.1 0-.1s0 0 0-.1 0 0 0-.1v-.1-.1-.1c-.1-.1-.1-.2-.2-.3-.4-.4-.9-.6-1.5-.3l-44.2 18.3s0 0-.1 0c0 0 0 0-.1 0 0 0 0 0-.1 0 0 0 0 0-.1 0v.1.1.1.1.1.1.1.1.1.1.1.1.1.1.1.1.1s0 .1.1.1.1 0 .1.1h.1s.1 0 .1.1h.1l17.8 7.5 7.5 17.8v.1.1.1s0 .1.1.1 0 0 .1.1h.1s.1 0 .1.1h.1.1.1.1.1.1.1.1.1.1s.1 0 .1-.1h.1s.1 0 .1-.1 0-.1.1-.1 0 0 0-.1 0 0 0-.1v-.1l18.3-44.1c0-.1.1-.2.1-.3v-.1-.1c.3.3.3.2.3.2zm-42.3 18.2 35.7-14.7-21 21zm22.7 22.6-6.2-14.5 20.7-20.7z"/><path d="m-786.1 490.1h1.4c.1 0 .3.1.4.1 2.6.1 5.2.7 7.7 1.5 4.7 1.5 8.9 4 12.8 7 .9.7 1.9 1.5 2.7 2.3 1 1 1.3 2.1.7 3.4-.2.5-.6 1-1 1.4-2.3 2.2-4.8 4.1-7.5 5.8-4.4 2.6-9.1 4.4-14.2 4.8-4.9.4-9.6-.5-14.1-2.4-3.9-1.6-7.4-3.9-10.6-6.7-1.1-1-2.5-1.9-2.9-3.5 0-.3 0-.7 0-1 .3-1 .9-1.8 1.7-2.4 3.4-2.8 7-5.3 11.1-7.1 3-1.3 6.1-2.3 9.3-2.7.8-.3 1.7-.4 2.5-.5zm-9.4 13.1c0 5.6 4.5 10.1 10.1 10.2 5.5.1 10.1-4.5 10.1-10.1s-4.5-10.2-10.1-10.2c-5.5-.1-10 4.5-10.1 10.1z"/><path d="m-781.5 503.2c0 2.1-1.7 3.9-3.9 4-2.1 0-3.9-1.8-3.9-4 0-2.1 1.8-3.9 3.9-3.9s3.9 1.7 3.9 3.9z"/><path d="m-363.2 425.2h8.7v8.7h-8.7z"/><path d="m-348.5 425.2h8.7v8.7h-8.7z"/><path d="m-333.8 425.2h8.7v8.7h-8.7z"/><path d="m-793 281.1c.8 2.8 3.3 3.4 5.3 4.5 3.1 1.6 6.3 3 9.4 4.6 1.1.6 2.3 1.3 3.1 2.3 5 6.6 9 13.8 10.9 22 1.4 6.2.6 12.3-1 18.4 0 .1-.1.2-.1.3-.2 4.3-2.9 6.6-6.7 7.9-2.5.8-5 1.9-7.6 2.6-1.2.3-2.7.2-3.9 0-1-.2-1.8 0-2.7.4-1.6.7-3.2 1.5-4.9 1.8-4 .8-8.1 1-12-.7-.5-.2-1.1-.1-1.7-.1-6.2.4-12.3.5-18.4-1-6.2-1.5-10.7-5-13.5-10.7-2-4.1-3.3-8.4-4.1-12.9-.4-2.7.2-5.2.9-7.8 1.5-5 3.6-9.8 6.4-14.1 1.2-1.8 2.8-3.4 4.3-4.9 2.5-2.6 5.1-5 7.6-7.6.3-.3.6-.8.6-1.2 0-3.2 1.3-4.6 4.4-5 .4 0 .9-.3 1.3-.6.9-.6 1.8-1.4 2.8-2 2.6-1.8 5.3-2.9 8.6-2.2 2 .4 4 .1 5.8-.8.6-.3 1.1-.6 1.7-.7 1.3-.3 2.6-1.5 3.8 0 1.5 1.9 1.8 4.3.7 6-.2.5-.7 1.1-1 1.5zm-24.4 16.3c1.1.6 2 1.3 3.1 1.6 2.4.7 4.9 1.2 7.4 1.7 2.4.5 4.8.2 7-.8 2.3-1 4.6-2.3 7-3.3 1.3-.6 2.8-1 4.2-1 .8 0 1.6.1 2.4-.3 0 0 .1.1.3.2-.2.3-.3.6-.4.8.5.6.9 1.1 1.3 1.7.3-.1.7-.2 1.4-.5-1.1 1.7-1.2 3.1 0 4.3-.4.6-.8 1.2-1.2 1.8-1.3 2-3.1 3.5-5.4 4.2-2.5.8-5 1.9-7.5 2.7-3.7 1.2-7.4 2.4-11.4 2.1-2.2-.2-4.4-.2-6.6 0-1.8.2-3.5 1-5.3 1.4-1 .2-2.1.5-3.1.3-1-.1-1.9-.7-2.8-1.1-3.7-1.5-6.9-3.5-8.8-7.1 0 0-.2 0-.4-.1-.6 1.5-1.4 3-1.9 4.5-1.1 3-2.1 6.1-1.5 9.4.8 4.4 2 8.7 4 12.8 2.1 4.2 5.5 7.2 9.8 9 5.8 2.4 12 2.7 18.1 2.2.8-.1 1.6-.2 2.6-.3-.6-.6-1-.9-1.3-1.4-2.2-3-4.8-5.9-6.6-9.1-2.5-4.6-.9-9.1 3.6-11.8.4-.2.7-.4 1-.7-.1-.1-.2-.2-.2-.4-1.2.8-2.5 1.5-3.6 2.4-1.4 1.1-2.9 1.5-4.6 1s-3.3-1.4-5-2.1c.3-.2.6-.4 1.1-.8-.9-.8-1.8-1.6-2.4-2.1.3-.4.9-.9 1-1.4 0-.5-.5-1.1-.8-1.6.4-.2 1-.6 1.5-.8 1.3-.6 2.5-1.5 3.8-1.7 2-.3 4.1-.3 6.1-.3 2.1 0 4.3.4 6.4 0 7.8-1.4 15.2-3.8 21.5-8.7 3.5-2.7 6.8-5.8 12-4.9-2.1-3.8-4.1-7.4-8.3-9-1.2-.5-2.4-1.2-3.6-1.8-2.8-1.4-5.7-2.9-8.7-4.4-.1.8-.2 1.3-.2 1.9-.1.7.2 1.6-.2 2.1-.6.8-1.4 1.9-2.3 2-1.1.1-1.2-1.2-1.3-2.2-.3-2.4-.3-2.5-3.2-2.3.9-1.3 1.7-2.3 2.5-3.3-.6-.1-1.2-.3-1.8-.3-3.8-.5-6.8 1-9.5 3.5-2.8 2.5-5.2 5.5-8.6 7.4-1.9 1-1.7 2 .1 3.1-.2.4-.4.8-.7 1.5zm11.1 22.8c4.3.5 7.2 2.9 8.7 6.9 1 2.7 1.8 5.4 2.8 8.1.2.5.7 1.1 1.2 1.2 2.2.3 4.5.5 6.8.8-.6-.3-1.2-.6-1.8-.7-1.4-.2-2.8-.3-4.3-.5-1.2-.2-2.2-1.7-2.3-3.3-.1-1.3 1-1.3 1.8-1.6 4.4-1.7 9.1-2.7 13.8-2.9 2.7-.2 5.4 0 7.8 1.3 2.2 1.2 3.4 3 3.2 5.6-.1 1.1-.5 2.3-.7 3.4 1.5-.9 2.5-2.1 2.8-3.8.2-1 .5-2 .7-2.9 2-6.6 1.9-13.3.1-19.9-.6-2.4-2.7-3.3-4.8-1.9-2.7 1.8-5.3 3.7-7.9 5.7-3 2.4-6.3 4-10.1 4.5-3 .4-6 .5-9 .5-2.9-.1-5.9-.4-8.8-.5zm13.5-45.9c-.5.1-1.3.4-1.4.3-.7-1.1-1.5-.3-2.1-.1-3 1.2-6 1.6-9.2 1.2-1.3-.2-2.9.2-4.1.8-1.9 1-3.7 2.4-5.4 3.8-2 1.6-1.8 2.6.4 3.8.5.3 1.2 1 1.1 1.4-.1.5-.8 1.2-1.4 1.4-1.8.5-3.6.6-5-.8-3.5 3.4-7 6.7-10.5 10.1-.8.8-1.5 1.9-2.2 2.8 5.2-1.4 10.3.9 15.4-.4-.1-.2-.2-.3-.4-.4-2.3-2.4-2.1-4.4.7-6.2.5-.3 1-.5 1.5-.9.9-.6 2-1.1 2.6-1.9 2.9-3.6 6.1-6.7 10.6-7.7-1.2-.7-2.6-1.5-3.8-2.4-.9-.6-.6-1.7.4-2.2 2.4-1.1 4.6 0 5 2.6 0 .2.1.4 0 .2 1.1-.1 2.3-.6 3-.2s1 1.7 1.5 2.6c.6-.2 1.3-.4 2.2-.7-.3-.3-.5-.4-.8-.6 3.1-1.7 3.6-3.6 1.9-6.5z"/><path d="m-810.8 290.8c0-.2 0-.6.1-.9.2-1 .5-2.1 1.8-2 1.2 0 1.9.9 2.2 2.1.2.8.3 1.6.5 2.4.3.8.5 1.7-.4 2-.7.3-1.8.4-2.5 0-1.2-.8-1.7-2.1-1.7-3.6z"/><path d="m-549.2 382.9c-.1.6-.2 1.1-.3 1.7-.2.6.7.9 1.1.9.6 0 1.5-.3 1.7-.9s.4-1.2.7-1.8c.2-.6.5-1.3.5-1.9s-.6-.9-1.1-.9c-.7 0-1.4.3-1.7.9-.7 1.1-1.5 2.2-2 3.4-.6 1.4-.6 2.7-.4 4.1 0 .4.5.5.8.6.4.1.9 0 1.3-.2 1.2-.5 2.3-1 3.5-1.5-.6-.4-1.2-.8-1.8-1.2-.1.2-.2.2-.3.3-.8.5-.5 1.6.4 1.6 1.4 0 2.9-.7 4.1-1.3 1.1-.6 2.1-1.3 2.9-2.2.7-.8 1.4-1.7 1.8-2.7.2-.5.4-1.1.6-1.7.1-.5.3-1.2-.1-1.6-.6-.6-1.6-.5-2.3 0-.9.7-1.7 1.5-2.3 2.4-.6.8-1 1.8-1.7 2.5-.6.6-1.4.9-2.1 1.1-1.1.3-2.3.6-3 1.5.9.2 1.7.3 2.6.5 1.4-2.3 2.9-4.6 4.9-6.4-.8.1-1.7.2-2.5.2 0 0 .1.1.1.1 0-.3 0-.5 0-.8-.8 1.7-2.1 3.2-3.1 4.7-.3.4.1.9.5 1.1.5.2 1.4.1 1.8-.3 1.4-1.2 2.5-2.5 3.5-4 .4-.6-.3-1.1-.9-1.1-.7-.1-1.5.2-1.9.9-.7 1.1-1.6 2.2-2.6 3.1.8.2 1.5.5 2.3.7 1.1-1.5 2.4-3 3.1-4.7.1-.3.1-.5 0-.8 0 0-.1-.1-.1-.1-.6-.8-2-.3-2.5.2-2.1 2-3.7 4.5-5.3 6.9-.3.5.2 1 .7 1.1.6.1 1.5-.1 1.9-.6 0 0 .2-.2.1-.1-.2.1.2-.1 0 0-.1 0 .2 0 .2-.1.1 0 .2-.1.3-.1.5-.1 1.1-.3 1.6-.5 1-.4 2-.9 2.8-1.7.8-.7 1.3-1.6 1.8-2.5.5-.8 1.1-1.5 1.9-2.1-.8 0-1.5 0-2.3 0v-.1c0 .1 0 .2-.1.3 0 .2-.1.4-.1.6-.1.4-.2.7-.4 1.1-.3.7-.7 1.4-1.3 2-.5.5-1.1 1-1.6 1.4-.4.3-.9.5-1.4.6-.2.1-.5.2-.7.3-.1 0-.2.1-.4.1.1 0 .2-.1.3 0 .1.5.3 1.1.4 1.6.3-.2.6-.4.8-.8.3-.4.4-.9-.1-1.2s-1.2-.2-1.8 0c-1.2.5-2.3 1-3.5 1.5.7.1 1.4.3 2.1.4-.1-1.2-.1-2.3.5-3.4.5-1.1 1.2-2.1 1.8-3.1-.9 0-1.9 0-2.8 0 0 1.1-.6 2.2-1 3.2h2.8c.1-.6.3-1.1.3-1.7.1-1.2-2.9-.8-3 .5z"/><path d="m-547.7 382.9c.9-1.6 1.9-3.3 2.9-4.9.9-1.5 1.8-3.2 3.1-4.5 1.2-1.2 2.8-2.2 4.1-3.2 1.5-1.1 3-2.1 4.6-3 .4-.2.9-.6.3-.9-.5-.3-1.6.1-2 .3-1.7 1-3.3 1.9-4.9 3.1-1.5 1.1-3.2 2.2-4.5 3.5s-2.2 3-3.2 4.6c-1.1 1.8-2.2 3.6-3.2 5.4-.3.5 1 .4 1.2.4.5 0 1.3-.2 1.6-.8z"/><path d="m-535.8 366.6c-.8.3-1.7.8-2.4 1.3-.8.6-1.4 1.2-2.3 1.7-1.5.9-2.9 1.8-4.2 3.1-2.5 2.5-4.2 5.6-4.6 9.2 0 .3 1.1.1 1.2.1.5-.1 1.2-.3 1.6-.6 1.7-1.4 3.4-2.8 4.7-4.5 1.4-1.9 1.8-4.2 2.6-6.4.2-.4-1-.2-1.1-.2-.4.1-1.5.3-1.7.7-1.4 3.4-2.6 6.9-3.5 10.5.9-.2 1.9-.5 2.8-.7-.5-.3-.9-.3-1.4-.4.2.1.3.2.5.3.2-.7.7-1 1.2-1.4.6-.5 1.3-.9 2-1.3 1.2-.8 2.5-1.7 3.6-2.6 2.1-1.7 3.9-3.9 4.6-6.6.1-.5-.9-.2-1.1-.2-.6.1-1.3.3-1.7.7-3.9 4.2-7 9.1-10.4 13.7.9-.2 1.9-.4 2.8-.5 1.1-1.8 2.5-3.5 3.8-5.2 1.2-1.6 2.6-3.6 2.9-5.6-.1-.1-.1-.1-.3-.1-1.9-.3-3.4 1-4.6 2.3-1.1 1.2-2 2.6-2.7 4.2-.2.4.8.3 1 .2.6-.1 1.3-.2 1.8-.6 1.9-1.8 3-4.2 3.9-6.7.2-.6-2.3.1-2.5.3-1 .6-1.9 1.3-2.8 2.1.9-.1 1.7-.2 2.6-.3 2.1-2.2 4.3-4.4 6.8-6.2-.8.1-1.7.2-2.5.3-.7 1.7-1.7 3.3-2.8 4.8.9-.2 1.9-.4 2.8-.5.5-.6.8-1.2 1.2-1.9.2-.4-.8-.2-1-.2-.6.1-1.3.3-1.8.6-.5.4-1 .8-1.5 1.1-.2.2-.5.4-.7.6-.5.3-1 .4.3.2.3 0 .6 0 .9-.1-.1 0-.1 0-.2 0-.7-.1-1.4.1-2 .4-.2.1-1 .6-.4.7 2.5.2 4.4-1.7 6.3-3.1-.9.1-1.8.3-2.7.4-.3.7-.7 1.3-1.2 1.9-.3.4 1.1.2 1.1.2.5-.1 1.4-.3 1.7-.7 1.1-1.5 2.1-3.1 2.8-4.8.2-.6-2.3.1-2.5.3-2.7 1.8-5 4.1-7.2 6.5-.4.4.4.4.7.4.6-.1 1.5-.2 1.9-.7.7-.7 1.5-1.3 2.3-1.8-.8.1-1.7.2-2.5.3-.8 2.3-1.8 4.7-3.6 6.4.9-.1 1.8-.3 2.7-.4.4-1.1 1-2.1 1.7-3 .6-.9 1.5-2 2.4-2.5-.8.2-1.5.4-2.3.5h.2c-.1 0-.2-.1-.3-.1-.3 2-1.8 4-3 5.6-1.2 1.7-2.6 3.2-3.7 5-.3.4 1 .2 1.1.2.5-.1 1.4-.3 1.7-.7 3.3-4.6 6.5-9.5 10.4-13.7-.9.2-1.9.4-2.8.5-.7 2.8-2.6 4.9-4.8 6.7-1.2.9-2.5 1.8-3.7 2.6-1 .6-2.6 1.4-2.9 2.6-.1.3.3.3.5.3s.4.1.6.2c.4.2 1.1 0 1.5-.1.3-.1 1.2-.3 1.3-.7.9-3.6 2.2-7.1 3.5-10.5-.9.2-1.9.4-2.8.5-.8 2.1-1.2 4.3-2.4 6.2-1.2 1.8-2.9 3.2-4.6 4.5.9-.2 1.8-.4 2.8-.5.4-3.3 2-6.4 4.3-8.7 1.1-1.1 2.4-2 3.7-2.8 1.4-.9 2.5-2.1 4.1-2.8.3-.1.9-.4.4-.7-.6-.4-1.6.1-2.1.2z"/><path d="m-540.1 371.2c1.2-1.8 3.1-2.9 5.1-3.9 2.2-1.1 4.4-2.1 6.4-3.7.5-.4.3-.9-.3-1-.7-.2-1.5.1-2 .5-1.9 1.6-4.2 2.5-6.3 3.6s-4.1 2.5-5.5 4.5c-.4.6.3.8.8.9.6-.1 1.4-.3 1.8-.9z"/><path d="m-527.5 363.3c.2-.7.5-1.3.7-2 .2-.5-1-.3-1.2-.2-.4.1-1.5.3-1.7.8-.7 1.5-1.2 3.1-1.8 4.7-.3.8-.5 1.5-.7 2.3-.3.8-.5 1.6-.5 2.4.1.6 2.3-.2 2.6-.4.9-.6 1.1-1.4 1.3-2.4.2-1.4.4-2.8.7-4.1.2-.8-2.3.1-2.5.2-2.6 1.4-4.8 3.4-6.2 6-.2.4.7.3.8.3.6 0 1.3-.2 1.7-.5.7-.5 1.3-1.1 1.8-1.9.5-.7 1-1.5 1.7-2-.9.1-1.7.2-2.6.4-.1.7-.5 1.5-.7 2.2-.3.7-.5 1.4-.8 2.1-.5 1.5-1.1 3-1.6 4.4 1-.2 1.9-.4 2.9-.5.5-1.6 1.2-3.2 2-4.7-1 .2-1.9.4-2.9.7.4 2.3-.4 4.6-1.5 6.6-.3.4 1 .3 1.2.2.5-.1 1.4-.3 1.7-.8 1.2-2.1 2-4.4 1.6-6.8-.1-.7-2.7.2-2.9.7-.8 1.5-1.4 3.1-2 4.7-.2.5 2.6.2 2.9-.5.6-1.6 1.2-3.1 1.7-4.7.3-.8.6-1.5.8-2.3.2-.6.5-1.3.6-2 0-.6-2.3.2-2.6.4-.7.5-1.3 1.1-1.8 1.9-.5.7-1 1.5-1.7 2 .8-.1 1.7-.2 2.5-.2 1.3-2.3 3.2-4.2 5.6-5.4-.8.1-1.7.2-2.5.2-.3 1.1-.5 2.2-.6 3.4-.1.7 0 2.2-.7 2.6.9-.1 1.7-.2 2.6-.4-.1-.8.2-1.6.5-2.4.2-.8.5-1.5.7-2.3.5-1.5 1.1-3 1.7-4.4-1 .2-1.9.4-2.9.5-.2.7-.5 1.3-.7 2-.2.5 1 .3 1.2.2.3-.3 1.4-.5 1.6-1z"/><path d="m-533.8 374.5c-1.9-.8-4.1.2-5.3 1.7-1 1.2-2 2.7-2.5 4.3-.1.5.6.6.9.7.6 0 1.3-.2 1.7-.6.8-.9 1.7-1.8 2.5-2.8.8-.8 1.5-1.7 2.4-2.4-.9 0-1.7 0-2.6-.1-.7 1.7-1.7 3.4-2.6 5-.5.8-1 1.6-1.5 2.4s-1.2 1.5-1.7 2.4c-.3.5.2.8.6.9.6.1 1.4-.1 1.9-.6 3-2.8 5.9-5.8 7.7-9.4.6-1.2-2.3-.9-2.7-.1-1.8 3.5-4.5 6.4-7.3 9 .8.1 1.7.2 2.5.3.5-.8 1.1-1.6 1.7-2.4s1.1-1.7 1.6-2.6c1-1.7 2-3.4 2.7-5.3.2-.5-.6-.6-.9-.7-.6 0-1.2.2-1.7.6-.9.7-1.7 1.6-2.4 2.4-.8.9-1.7 1.8-2.5 2.8.9 0 1.7 0 2.6.1.3-1.1.9-2 1.6-2.9.3-.4.5-.8.9-1.1 0 0 .2-.2.2-.2.2-.2.1 0 0 0-.2 0-.3 0-.1 0 .6.3 1.5.1 2.1-.3.3-.2.9-.8.2-1.1z"/><path d="m-536 378.7c-.1.1-.1.2-.2.3.1-.1.1-.2.2-.3-.9 1.6-2 2.9-3.1 4.2-.1.1-.2.4 0 .5.2.2.6.2.8.2.7 0 1.4-.2 1.9-.7 1.3-1.4 2.4-2.9 3.4-4.6.1-.2-.1-.4-.3-.4-.3-.1-.7-.1-.9 0-.8 0-1.5.2-1.8.8z"/><path d="m-531.7 376c.5-.6.9-1.4.9-2.2 0-.2.1-.4-.1-.5-.2-.2-.8-.1-1-.1-.3 0 .2 0 0 0-.1 0-.1 0 0 0-.2-.1-.3-.2-.4-.3 0 0 .1.1.1.1-.1-.2-.2-.4-.3-.6-.1-.3-.2-.5-.2-.8v.1c0-.1 0-.1.1-.2 0 0 0 0 0-.1-.1.1-.2.2-.4.2.2-.1.5-.2.6-.4s-.1-.3-.2-.3c-.3-.1-.6 0-.9 0-.4.1-.8.2-1.1.3-.5.2-1 .6-.9 1.2 0 .3.2.7.3 1s.4.6.7.7.5.2.8.2h.5.2c.2 0 .1 0-.4-.1 0 0-.1-.1-.1-.1.1.2 0 .4 0 .6v-.1c-.1.3-.1.6-.3.9-.1.1-.1.3-.2.4 0 .1-.1.1-.1.2 0 0 0 .1-.1.1-.1.1-.2.3-.1.4.2.1.6.1.7.1.4 0 .8-.1 1.1-.3.3 0 .7-.1.8-.4z"/><path d="m-534.9 377.1c-.3.5-.7.9-1.1 1.3 0 0 .1-.1.1-.1-.3.3-.7.7-1 1-.1.1-.2.2-.1.3.1 0 .2.1.3.1h.4c.4 0 .8-.1 1.1-.3.3-.1.6-.2.8-.4.8-.7 1.6-1.6 2.2-2.4.1-.2-.1-.2-.2-.3-.3-.1-.6 0-.9.1-.4.1-.8.2-1.1.3-.1.1-.3.2-.5.4z"/><path d="m-505 364.7h46.6v36.8h-46.6z" fill="none" stroke="#000" stroke-miterlimit="10" stroke-width="2"/><path d="m-472.1 382.9-8.9-8.4-23.8 22.7" fill="none" stroke="#000" stroke-miterlimit="10" stroke-width="2"/><path d="m-458.4 369.1-21.4 21.6" fill="none" stroke="#000" stroke-miterlimit="10" stroke-width="2"/><path d="m-503.9 367.1c1.1 0 2.1-.2 3.1-.5.2-.1 1-.3.9-.7 0-.3-.6-.3-.8-.3-.5 0-1-.1-1.4-.3-.8.4-1.5.7-2.3 1.1h13.4c.7 0 1.5-.2 2-.5.4-.3.4-.6-.2-.6-4.5 0-8.9 0-13.4 0-.6 0-1.2.1-1.8.4-.1.1-.9.5-.5.7.9.4 1.9.6 2.9.5 0-.3.1-.6.1-.9.1 0-.2 0-.3 0-.7 0-1.5.2-2 .5-.3.2-.3.6.3.6z"/><path d="m-494 382c9.7 0 9.7-15 0-15-9.6 0-9.6 15 0 15z"/><path d="m-486.7 376.5c-.9 2.3-2.5 3.5-4.8 3.7.4 0 .7 0 1.1.1-.7-4.9-1.3-9.8-2-14.7-2.5.9-4.3 2-6.3 3.7-.5.5-1 1-1.5 1.5-.4.5-2.3 2.2-.4.8 1.3-.3 2.5-.7 3.8-1-.1 0-.2 0-.3 0 1.3.3 2.5.7 3.8 1-.1-.1-.2-.1-.2-.2l2.7 2.7c.5 1.4.6 1.6.3.7.1 1.1.2 1.2.1.4.1-.5.1-1 .1-1.5.1-1.9-.2-4.1-1.4-5.7s-2.5-2.9-4.5-3.4c-1.8-.5-4.2-.3-5.8.8-3.2 2-5.1 6.9-2.7 10.3-1.3-1.8-.5-3.7-.6-2.1 0 .4-.1.8-.1 1.2-.1 1.4.1 2.8.4 4.2.8 3.7 4.1 6.9 8 6.8 3.3-.1 5.3-1.9 7.4-4.2.4-.5 1.4-1.1 1.7-1.7-.2.3-1.3.8-.4.3.5-.3 1.7-.7-.1 0 3.6-1.2 5.9-4.4 5.4-8.2-.5-3.9-3.6-6.1-7.4-6.5-4.5-.4-9.9 2.3-10.7 7.2-.3 2.1-.3 3.9.8 5.8.9 1.6 2.7 3 4.5 3.4 3.5.7 8.4-1.2 9.1-5.4z"/><path d="m-464.9 375.4c.2-.3.5-.7.7-1 2.8-3.8-1-9-5.2-9-7.1 0-13.6-1.9-20.7-.7-3.2.5-5 4.5-4.2 7.4.9 3.4 4.2 4.7 7.4 4.2 5.7-.9 11.7 1.2 17.5 1.2-1.7-3-3.5-6-5.2-9-.2.3-.5.7-.7 1-1.9 2.6-.4 6.7 2.2 8.2 3.1 1.7 6.3.3 8.2-2.3z"/><path d="m-499 388.9c7.7 0 7.7-12 0-12s-7.7 12 0 12z"/><path d="m-496.6 387c7.7 0 7.7-12 0-12s-7.7 12 0 12z"/><path d="m-462 372.9c.7-.9 1.4-1.8 2.1-2.8.2-.2.4-.5.5-.7.3-.4.3-.8.3-1.3-.1-.9-.6-1.7-1.2-2.3-.4-.4-1-.9-1.6-1s-1.3-.1-1.9-.1-1.1 0-1.7 0c-1.2 0-2.3.1-3.5.2-.4 0-.6.4-.6.7-.1.5.2 1.1.4 1.5.3.6.7 1.1 1.2 1.5.3.3.8.6 1.2.5 2.2-.2 4.4-.3 6.6 0-.1 0-.3 0-.4 0 .3.1.1-.1-.6-.4-.3-.3-.6-.6-.9-.9v.1c-.2-.4-.4-.8-.6-1.1v.1c0-.3-.1-.7-.1-1v.1c0-.1.1-.2.1-.4-.1.3-.4.6-.6.9s-.5.7-.7 1c-.5.6-1 1.3-1.4 1.9-.2.3 0 1.1.1 1.4.2.6.6 1.2 1 1.7.7.3 1.7 1.2 2.3.4z"/><path d="m-459.9 367.6c.8 0 1.8-.3 1.3-1.3-.5-.9-2.2-1.3-3.2-1.3-.8 0-1.8.3-1.3 1.3.5.9 2.2 1.3 3.2 1.3z"/><path d="m-472.4 377.3c-.4.5-.8 1-1.2 1.5 1.4-.1 2.8-.2 4.2-.3-1.3-1.6-2.7-3.1-4.4-4.3-.5-.4-1-.5-1.6-.5s-1.3.3-1.8.8c-.4.4-.8 1-.8 1.6 0 .5.1 1.2.6 1.5 1.4 1 2.6 2.1 3.7 3.4-.1-.1-.2-.3-.4-.4.1.1.2.3.3.4.2.3.5.6.8.7.4.2.8.2 1.2.2.9-.1 1.6-.6 2.2-1.3l1.2-1.5c.3-.4.5-1.1.4-1.7-.1-.5-.5-1.1-1-1.3-.6-.2-1.2-.3-1.8-.1-.2.1-.4.2-.6.3-.5.3-.8.6-1 1z"/><path d="m-500.5 386.5c-.8.5-1.5 1.2-1.9 2-.4.7-.6 1.5-1 2.2.1-.1.1-.2.2-.4-.1.3-.3.7-.5 1 0 .1-.1.1-.2.2-.2.3.3-.3.1-.1-.1.1-.1.1-.2.2-.3.3.4-.3.1-.1 1.2-.1 2.5-.2 3.7-.3-.1-.1-.2-.2-.3-.3.1.1.1.2.2.3-.2-.3-.2-.7-.2-1v.4c0-1 .1-2 .2-3.1s.1-2.2.2-3.3-1.3-1.2-2.1-1.1c-.6.1-1.3.3-1.8.7-.3.2-.9.6-.9 1.1-.1 1.5-.2 3-.3 4.5-.1 1.2-.4 2.9.6 3.8 1 .8 2.8.4 3.7-.3.8-.5 1.4-1.2 1.9-2.1.4-.7.6-1.5.9-2.2-.1.1-.1.2-.2.4.2-.4.3-.7.5-1 0-.1.1-.1.2-.2s-.4.3-.1.1c.1-.1.3-.3 0 0s0 0 .1 0c.3-.2.8-.6.9-1.1.1-.4-.2-.7-.5-.9-.9-.3-2.3.1-3.3.6z"/><path d="m-501.1 386.8v.4c0-.1 0-.1 0-.2-.1.5-.4 1-.8 1.2.1 0 .1-.1.2-.1h-.1c-.1 0-.2.1-.2.2s0 .3.1.4c.1.2.3.4.4.5.2.2.4.4.6.6.5.4 1.1.8 1.6 1 .2.1.3.1.5.2s.4.1.7.1c.4-.2.7-.4.9-.8.1-.1.1-.3.2-.5 0-.2.1-.5 0-.7s-.1-.3-.3-.4c-.1-.2-.3-.4-.5-.5-.2-.2-.5-.4-.7-.6-.3-.2-.5-.4-.8-.5-.2-.1-.4-.2-.5-.3-.3-.1-.6-.2-.9-.3-.1 0-.2 0-.3 0-.1.1-.1.2-.1.3z"/><path d="m-501.9 394.7c.6 0 1.8-.1 1.1-.9-.6-.8-2.4-1-3.3-1-.6 0-1.8.1-1.1.9.7.7 2.4 1 3.3 1z"/><path d="m-502 394.7c0-.5 0-1.1.1-1.6 0-.3-.1-.5-.3-.6-.1-.1-.3-.1-.4-.1-.2 0-.4-.1-.5 0-.4 0-.8.2-1.1.4-.2.2-.5.4-.5.7-.1.5-.1 1.1-.1 1.6 0 .1 0 .3.1.4 0 .1.1.2.3.3.1.1.3.1.4.1.2 0 .4.1.5 0 .4 0 .8-.2 1.1-.4.1-.1.2-.1.3-.2-.1-.2 0-.4.1-.6z"/><path d="m-427.2 378.1c0-5.2 0-10.5 0-15.7 0-1.2.1-2.3 1.3-2.9s2.2-.2 3.2.5c7.5 5.2 15.1 10.5 22.7 15.7 2.2 1.5 2.2 3.3 0 4.8-7.6 5.2-15.1 10.4-22.7 15.7-1 .7-1.9 1.1-3.1.6-1.2-.6-1.4-1.6-1.4-2.8 0-5.3 0-10.6 0-15.9zm5.1 11.7c5.7-3.9 11.2-7.8 16.8-11.7-5.7-3.9-11.2-7.7-16.8-11.6z"/><path d="m-423.7 368.2c2.9 3.3 5.7 6.8 8.8 10 1.3 1.3 2.7 2.5 4.4 3.2 1.4.6 3.9 1 4.6-.8.6-1.5-1.3-3.4-2.2-4.4-1.2-1.4-2.7-2.7-4.2-3.9s-3.2-2.2-4.9-3.2c-.8-.5-1.6-.9-2.4-1.3-.7-.4-1.7-.8-2.1-1.6-.6.5-1.3 1-1.9 1.5 1.6.1 2.8 1.3 4 2.4 1.2 1.2 2.5 2.2 4 3.1 1.4.9 3 1.7 4.5 2.5 1 .5 4.1 1.5 3.5 3.1-.6 1.4 1.6 1.4 2.4.9.7-.5 1-1.3.7-2.1-.4-.9-1.4-1.2-2.3-1.2-1 0-1.9 0-2.8-.5-1-.6-1.6-1.5-2-2.5-.4-1.4-3.2-.6-2.9.8.6 2.4 1.9 4.4 3.9 5.9.6.4 1.6.3 2.1-.2.6-.5 1-1 1-1.8 0-.7-.7-1.1-1.4-1-2 .3-3 2-4.2 3.4-1.4 1.6-2.9 3.3-4.3 4.9-1.1 1.2 1 1.8 1.9 1.4 2.2-1.2 4.5-2.4 6.7-3.5.7-.4 1.3-1.5.2-1.9s-2.2-.4-3.3-.2c.6.3 1.2.6 1.7.9 0-.8.2-1.5.9-2.1 1.5-1.3-.8-2.3-1.9-1.4-4.3 3.5-8.2 7.3-11.8 11.5.9 0 1.8 0 2.7.1-1.1-3.3-.6-6.7-.4-10 .2-3.4-.1-6.9-.8-10.2-.9.4-1.7.8-2.6 1.2 1.9 1.2 2.3 3.8 4 5.3 1.6 1.5 5.5 2.3 5.3 5 .9-.2 1.9-.5 2.8-.7-2-2.3-3.8-4.8-5.3-7.5-.7.6-1.4 1.1-2.2 1.7 1.3.5 2.2 2.3 2.7 3.5.6 1.5.7 2.9-.6 4-1.9 1.6-5 2.7-5 5.7 1-.1 2-.1 2.9-.2-.1-4-.1-8 0-12-.9.2-1.9.5-2.8.7 1.7 2.2 1.8 5 1.7 7.6 1-.2 1.9-.3 2.9-.5-.2-2.3-.3-4.6-.2-6.9-.9.3-1.7.6-2.6 1 1.8 1.4 2.2 4.1 1.1 6-.4.6.3 1.2.9 1.3.7.1 1.5-.3 1.9-.9 1.6-2.7.8-6.2-1.6-8.1-.7-.6-2.5-.1-2.6 1-.1 2.5 0 5 .2 7.5.1 1.3 2.9.7 2.9-.5 0-3 0-6.3-2-8.8-.7-.8-2.8-.5-2.8.7-.1 4 0 8 0 12 0 1.6 2.9 1.2 2.9-.2 0-1.8 1.7-2.6 3-3.4 1.2-.8 2.5-1.8 2.9-3.3.5-1.7-.2-3.4-1-4.9s-1.7-2.8-3.3-3.4c-.9-.4-2.8.5-2.2 1.7 1.5 2.7 3.3 5.2 5.3 7.5.7.8 2.7.5 2.8-.7.2-3.2-2.9-4.4-5.1-5.9s-2.5-4.5-4.8-6c-.9-.5-2.8 0-2.6 1.2.7 3.5.9 7 .7 10.5-.2 3.3-.6 6.6.5 9.7.4 1.1 2.1.8 2.7.1 3.4-4 7.2-7.7 11.3-11.1-.6-.5-1.3-.9-1.9-1.4-1.1.9-1.8 2.2-1.9 3.6 0 1 1 1.1 1.7.9.4-.1.7 0 1.1.1.1-.6.1-1.3.2-1.9-2.2 1.2-4.5 2.4-6.7 3.5.6.5 1.2.9 1.9 1.4 1.1-1.2 2.2-2.5 3.3-3.7.5-.6 1-1.2 1.5-1.8.3-.3.5-.6.8-.9.2-.2 1-.8.3-.7-.5-.3-.9-.7-1.4-1v.2c.7-.1 1.4-.1 2.1-.2-1.6-1.3-2.7-3-3.2-5-1 .3-1.9.5-2.9.8.5 1.6 1.5 2.9 2.9 3.7.7.4 1.4.6 2.2.8.4.1.8.1 1.2.1h.7c.2.1.3 0 .3-.2.8.3 1.6.6 2.4.9.8-1.9-.5-3.4-2.1-4.2-1.9-1-3.8-1.9-5.7-3-1.8-1.1-3.4-2.4-5-3.8-1.4-1.3-3-2.4-4.9-2.6-.7 0-2.4.5-1.9 1.5.6 1.4 1.8 2.1 3.1 2.8 1.4.8 2.7 1.5 4 2.4 2.8 1.8 5.4 3.8 7.5 6.5.2.3.5.6.7.9.1.2.2.3.3.5.2.6.5.5 1.1-.2 0-.1-1-.3-1.1-.3-.4-.1-.7-.3-1-.5-1.4-.8-2.5-2-3.5-3.2-2.6-2.9-5.1-5.8-7.7-8.7-1-1.4-3.7-.2-2.7 1z"/><path d="m-413.3 373.7c-.7-.8-1.4-1.6-2.1-2.4-.9.3-1.8.7-2.7 1 .9.5 1.8 1.1 2.6 1.7.7.6 1.4 1.2 1.7 2.1.3.7.3 1.6-.2 2.3 0 0-.2.2-.1.1.5-.1 1-.2 1.5-.4 0 0 0 0-.1 0-.2-.1-.3-.2-.3-.4-.2-.5-.1-1.1.1-1.6.1-.5-.9-.4-1.2-.3-.4.1-.8.2-1.1.3-.2.1-.5.2-.6.5-.2.6-.4 1.4 0 2 .4.7 1 .9 1.8.8 1.7-.1 3.3-1 3.4-2.8.1-1.2-.6-2.2-1.5-3-.9-.9-2.1-1.6-3.2-2.2-.5-.3-1.3-.1-1.9.1-.3.1-1.2.5-.9.9.7.8 1.4 1.6 2.1 2.4.1.1.6.1.7.1.4 0 .8-.1 1.1-.3.3-.1 1.3-.5.9-.9z"/><path d="m-844.6 503.2 11-10.8 10 9.8" fill="none" stroke="#1d1d1b" stroke-miterlimit="10" stroke-width="2"/><path d="m-833.6 492.4v23.1" fill="none" stroke="#1d1d1b" stroke-miterlimit="10" stroke-width="2"/><path d="m-723.4 483.6 26.4.1" fill="none" stroke="#000" stroke-miterlimit="10" stroke-width="2"/><path d="m-741.4 500.3 26.5.1" fill="none" stroke="#000" stroke-miterlimit="10" stroke-width="2"/><path d="m-741.4 483.6h7.1" fill="none" stroke="#000" stroke-miterlimit="10" stroke-width="2"/><path d="m-704.1 500.4h7.1" fill="none" stroke="#000" stroke-miterlimit="10" stroke-width="2"/><circle cx="-728.9" cy="483.6" fill="none" r="5.4" stroke="#000" stroke-miterlimit="10" stroke-width="2"/><path d="m-723.4 518.2 26.4.1" fill="none" stroke="#000" stroke-miterlimit="10" stroke-width="2"/><path d="m-741.4 518.2h7.1" fill="none" stroke="#000" stroke-miterlimit="10" stroke-width="2"/><circle cx="-728.7" cy="518.2" fill="none" r="5.4" stroke="#000" stroke-miterlimit="10" stroke-width="2"/><circle cx="-709.1" cy="500.4" fill="none" r="5.4" stroke="#000" stroke-miterlimit="10" stroke-width="2"/><path d="m-673.2 514.7 4.5 4.7-6 1.5z"/><path d="m-671.7 511.8 12.9-13.2 6.2 5.8-13.2 13.1z"/><path d="m-656.3 496.4 3.7-3.5 5.8 5.5-3.7 3.5z"/><g fill="none"><path d="m-676.6 494.9v9.7" stroke="#000" stroke-miterlimit="10" stroke-width="2"/><path d="m-676.6 485.8v-8.9h8.8" stroke="#000" stroke-miterlimit="10" stroke-width="2"/><path d="m-658.1 476.9h8.4" stroke="#000" stroke-miterlimit="10" stroke-width="2"/><path d="m-639.7 476.9h8.6v8.9" stroke="#000" stroke-miterlimit="10" stroke-width="2"/><path d="m-631.1 514v7.9h-8.6" stroke="#000" stroke-miterlimit="10" stroke-width="2"/><path d="m-631.1 495.8v8" stroke="#000" stroke-miterlimit="10" stroke-width="2"/><path d="m-658.1 522.5h8.4" stroke="#000" stroke-miterlimit="10" stroke-width="2"/><path d="m534.2-710-322.1 278.5" stroke="#000" stroke-miterlimit="10" stroke-width="2"/><path d="m212.3-432.1 278.5 322.1" stroke="#000" stroke-miterlimit="10" stroke-width="2"/><path d="m-546.5 476.8c-2-.5-4.1-.8-6.3-.8-13.6 0-24.6 11-24.6 24.6s11 24.6 24.6 24.6 24.6-11 24.6-24.6c0-7.9-3.7-14.9-9.5-19.4" stroke="#000" stroke-miterlimit="10" stroke-width="2"/><path d="m-552.7 484.1v33.3" stroke="#000" stroke-miterlimit="10" stroke-width="2"/><path d="m-569.2 500.6h12.7" stroke="#000" stroke-miterlimit="10" stroke-width="2"/><path d="m-548.9 500.7h12.7" stroke="#000" stroke-miterlimit="10" stroke-width="2"/><path d="m-483.5 517.4c-6 0-10.9-4.9-10.9-10.9v-17.2c0-6 4.9-10.9 10.9-10.9 6 0 10.9 4.9 10.9 10.9v17.2c0 6-4.9 10.9-10.9 10.9z" stroke="#000" stroke-miterlimit="10" stroke-width="2"/><path d="m-468 506.1v3.2c0 8.2-6.6 14.8-14.8 14.8h-1.2c-8.2 0-14.8-6.6-14.8-14.8v-3.2" stroke="#000" stroke-miterlimit="10" stroke-width="2"/><path d="m-483.5 524v6" stroke="#000" stroke-miterlimit="10" stroke-width="2"/><path d="m-494.1 530h20.9" stroke="#000" stroke-miterlimit="10" stroke-width="2"/><path d="m-494.3 491.9h9.9" stroke="#000" stroke-miterlimit="10" stroke-width="2"/><path d="m-494.3 497.2h9.9" stroke="#000" stroke-miterlimit="10" stroke-width="2"/><path d="m-494.3 502.5h9.9" stroke="#000" stroke-miterlimit="10" stroke-width="2"/><path d="m-494.3 507.7h9.9" stroke="#000" stroke-miterlimit="10" stroke-width="2"/><circle cx="-413.3" cy="485.8" r="10.4" stroke="#000" stroke-miterlimit="10" stroke-width="2"/><circle cx="-437" cy="488.2" r="7.4" stroke="#000" stroke-miterlimit="10" stroke-width="2"/><path d="m-397.9 510.6 11.9-6v22.7l-11.4-5.8" stroke="#000" stroke-miterlimit="10" stroke-width="2"/><path d="m-407.9 530.3h-34.9c-2.4 0-4.3-1.9-4.3-4.3v-20.9c0-2.4 1.9-4.3 4.3-4.3h34.9c2.4 0 4.3 1.9 4.3 4.3v20.9c.1 2.4-1.9 4.3-4.3 4.3z" stroke="#000" stroke-miterlimit="10" stroke-width="2"/><path d="m-244.8 382.5h-47.7c-2.2 0-3.9-1.8-3.9-3.9v-30.9c0-2.2 1.8-3.9 3.9-3.9h47.7c2.2 0 3.9 1.8 3.9 3.9v30.9c.1 2.1-1.7 3.9-3.9 3.9z" stroke="#1d1d1b" stroke-miterlimit="10" stroke-width="2"/><ellipse cx="-268.6" cy="361.5" rx="13.3" ry="13.3" stroke="#1d1d1b" stroke-miterlimit="10" stroke-width="2" transform="matrix(.1595 -.9872 .9872 .1595 -582.58 38.6457)"/><path d="m-279.8 343.2.8-1.6c.4-.8.6-1.6.8-2.5.5-2.6 2.8-4.5 5.5-4.5h8c2.8 0 5.1 2 5.5 4.6.1.8.3 1.5.7 2.2l1.1 2" stroke="#1d1d1b" stroke-miterlimit="10" stroke-width="2"/></g><path d="m-280 344.9 1.2-2c.4-.8.6-1.8.8-2.7.5-2.8 2.8-4.9 5.5-4.9h7.9c2.8 0 5 2.2 5.5 5.1.1.8.3 1.7.7 2.4l1.1 2.2" fill="#fff"/><path d="m-273.2 343.9h9.2v.4h-9.2z" fill="none" stroke="#1d1d1b" stroke-miterlimit="10" stroke-width=".75"/><path d="m-239.8 503.9c0-1.8-1.3-3.7-2.9-4.3s-3.1-2-3.6-3c-.5-1.1-.3-3.2.4-4.7s.3-3.8-1-5.1-3.5-1.7-5.1-1c-1.5.7-3.6.8-4.7.4-1.1-.5-2.5-2-3-3.6-.6-1.6-2.5-2.9-4.3-2.9s-3.7 1.3-4.3 2.9-2 3.2-3 3.6c-1.1.5-3.2.3-4.7-.4s-3.8-.3-5.1 1-1.7 3.5-1 5.1c.7 1.5.8 3.6.4 4.7-.5 1.1-2 2.5-3.6 3-1.6.6-2.9 2.5-2.9 4.3s1.3 3.7 2.9 4.3 3.1 2 3.6 3c.5 1.1.3 3.2-.4 4.7s-.3 3.8 1 5.1 3.5 1.7 5.1 1c1.5-.7 3.6-.8 4.7-.4 1.1.5 2.5 2 3 3.6s2.5 2.9 4.3 2.9 3.7-1.3 4.3-2.9 2-3.1 3-3.6c1.1-.5 3.2-.3 4.7.4s3.8.3 5.1-1 1.7-3.5 1-5.1c-.7-1.5-.8-3.6-.4-4.7.5-1.1 2-2.5 3.6-3s2.9-2.5 2.9-4.3zm-24.2 8.9c-4.9 0-8.9-4-8.9-8.9s4-8.9 8.9-8.9 8.9 4 8.9 8.9c0 5-4 8.9-8.9 8.9z"/><path d="m-312.1 507.1c0-1.8-1.3-3.7-2.9-4.3s-3.1-2-3.6-3c-.5-1.1-.3-3.2.4-4.7s.3-3.8-1-5.1-3.5-1.7-5.1-1c-1.5.7-3.6.8-4.7.4-1.1-.5-2.5-2-3-3.6-.6-1.6-2.5-2.9-4.3-2.9s-3.7 1.3-4.3 2.9-2 3.2-3 3.6-3.2.3-4.7-.4-3.8-.3-5.1 1-1.7 3.5-1 5.1.8 3.6.4 4.7c-.5 1.1-2 2.5-3.6 3s-2.9 2.5-2.9 4.3 1.3 3.7 2.9 4.3 3.1 2 3.6 3c.5 1.1.3 3.2-.4 4.7s-.3 3.8 1 5.1 3.5 1.7 5.1 1c1.5-.7 3.6-.8 4.7-.4 1.1.5 2.5 2 3 3.6.6 1.6 2.5 2.9 4.3 2.9s3.7-1.3 4.3-2.9 2-3.2 3-3.6c1.1-.5 3.2-.3 4.7.4s3.8.3 5.1-1 1.7-3.5 1-5.1c-.7-1.5-.8-3.6-.4-4.7.5-1.1 2-2.5 3.6-3s2.9-2.5 2.9-4.3zm-24.2 8.9c-4.9 0-8.9-4-8.9-8.9s4-8.9 8.9-8.9 8.9 4 8.9 8.9-4 8.9-8.9 8.9z" fill="#fff" stroke="#1d1d1b" stroke-miterlimit="10" stroke-width="2"/><path d="m-844.3-20.8 3.4-2.7c3 4 8.1 7.2 14.2 7.2 8.1 0 12.1-4.4 12.1-9.4 0-5.8-6.5-7.2-13-8.8-7.3-1.8-14.6-4-14.6-12.2 0-6.5 5.9-12.2 15.3-12.2 6.4 0 12 2.4 15.6 6.5l-3.3 2.7c-3.1-3.4-6.9-5.3-12.3-5.3-7 0-11 3.5-11 8.3 0 5.5 6.2 7 12.6 8.6 7.4 1.8 15 4.1 15 12.5 0 6.3-5.2 13.3-16.6 13.3-7.5-.2-13.8-3.6-17.4-8.5z"/><path d="m-806.9-58h4.2v9.1c3-5.9 9.2-10 17.2-10 11.9 0 19.8 7.8 19.8 20.5v25h-4.3v-25.1c0-9.9-6-16.4-16-16.4-9.4 0-16.5 7.1-16.5 16.5v25h-4.3v-44.6z"/><path d="m-762.6-35.7c0-12.8 9.9-23.3 23-23.3 7.3 0 15.2 4 18.7 11.2v-10.2h4.3v44.6h-4.3v-10.2c-3.5 7.2-11.4 11.1-18.7 11.1-13.1 0-23-10.4-23-23.2zm42.2 0c0-10.6-8.3-19.2-19-19.2-10.4 0-18.8 8.5-18.8 19.2s8.3 19.1 18.8 19.1c10.7.1 19-8.4 19-19.1z"/><path d="m-713.3-35.7c0-12.8 9.9-23.3 23-23.3 7.3 0 15.2 4 18.7 11.2v-10.2h4.3v43.7c0 13.8-8.8 22.5-22.3 22.5-11 0-16.8-4.6-21.1-12.2l4.2-1.9c3.3 6.3 8.1 10.1 16.9 10.1 11.1 0 18-7.2 18-18.4v-9.5c-3.5 7.2-11.4 11.1-18.7 11.1-13 .1-23-10.3-23-23.1zm42.2 0c0-10.6-8.3-19.2-19-19.2-10.4 0-18.8 8.5-18.8 19.2s8.3 19.1 18.8 19.1c10.7.1 19-8.4 19-19.1z"/><path d="m-566.1-58.8c-8.6 0-15.1 4.7-17.8 11.1-2.4-6.7-8.2-11.1-17.2-11.1-3 0-5.6.6-8 1.6.8 1 1.5 2.1 2.1 3.3 1.7-.6 3.6-.9 5.6-.9 9.3 0 15.1 5.9 15.1 14.6v26.9h4.3v-26.1c0-9.5 6.9-15.5 15.8-15.5 9.5 0 15.6 6.5 15.6 15.5v26.1h4.3v-25.8c.1-11.7-7.4-19.7-19.8-19.7z"/><path d="m-602.1-42c-.8-4.5-2.5-8.8-4.9-12.6-2.5-3.8-5.7-7-9.4-9.5-1.9-1.2-3.8-2.3-5.9-3.1s-4.2-1.4-6.3-1.8l-.1.4c2.1.6 4.1 1.3 6 2.3 1.9.9 3.8 2.1 5.4 3.4 1.7 1.3 3.2 2.8 4.6 4.4s2.6 3.3 3.6 5.2c1 1.8 1.9 3.8 2.6 5.7.3 1 .6 2 .8 3s.4 2 .5 3.1c.3 2.1.3 4.1.1 6.2-.1 1-.2 2.1-.4 3.1s-.4 2-.7 3-.6 1.9-1 2.9c-.4.9-.9 1.9-1.4 2.7-.5.9-1.1 1.7-1.6 2.6-.6.8-1.2 1.6-1.9 2.4-1.3 1.5-2.8 3-4.3 4.3-1.6 1.3-3.2 2.5-4.9 3.6-2.9 1.8-6 3.3-9.3 4.3 1.2-1.3 2.1-3 2.6-4.9.1-.4.2-.8.2-1.3.1-.8.2-1.6 0-2.5-.1-.7-.3-1.4-.5-2.1v-.1c-1.2-3.4-4.1-6.2-7.9-7-4.5-1-8.9.9-11.3 4.5-8-1.9-20.3-15.7-12.3-29.6 1 .9 2.6 1.3 4.9 1.2 3.5-.2 6.4-2.7 6.4-6.1s-2.9-6.1-6.4-6.1-6.4 2.7-6.4 6.1c0 1.7.2 3 .7 3.9 0 1-2.1 3.1-3 4.4-.9 1.5-10.1 12.1-3.3 26.8.8 1.7 1.7 3.2 2.7 4.5s9 14.7 31.7 11.8h.3c1.5-.2 3-.4 4.5-.8.2 0 .4-.1.6-.1 2.7-.7 5.4-1.8 7.9-3.2 2-1.1 3.9-2.4 5.7-3.9s3.4-3.2 4.8-5c2.8-3.7 4.9-8 6-12.4.3-1.1.5-2.3.6-3.4.2-1.1.2-2.3.3-3.4.2-2.3.1-4.6-.3-6.9z"/><path d="m-637.6-30c2.2 1.4 4.7.4 5.4-2 .7-2.2-.3-4.9-2.3-6.2-2.2-1.4-4.7-.6-5.5 1.9-.7 2.2.4 5 2.4 6.3z"/><path d="m-653.4-42.6c-2.3.3-4.5 2.3-4.8 4.7-.4 2.6 1.5 4.5 4.1 4.1 2.3-.3 4.3-2.3 4.7-4.6.4-2.5-1.5-4.5-4-4.2z"/><path d="m-646.4-25.9c1.3.2 2.5-.1 2.6-.8.1-.6-.9-1.4-2.2-1.6s-2.5.1-2.6.8c0 .7.9 1.4 2.2 1.6z"/><path d="m-515.3-132.5h174.5v99.1h-174.5z" fill="#fff"/><path d="m-410.1-86.3c-.4-2.4-1.3-4.7-2.6-6.7s-3-3.8-5-5.1c-1-.7-2.1-1.2-3.2-1.7-1.1-.4-2.2-.8-3.4-1l-.1.2c1.1.3 2.2.7 3.2 1.2s2 1.1 2.9 1.8 1.7 1.5 2.5 2.3c.7.9 1.4 1.8 2 2.8s1 2 1.4 3.1c.2.5.3 1.1.4 1.6s.2 1.1.3 1.7c.1 1.1.2 2.2.1 3.3 0 .6-.1 1.1-.2 1.6s-.2 1.1-.4 1.6-.3 1-.6 1.5c-.2.5-.5 1-.7 1.5-.3.5-.6.9-.9 1.4-.3.4-.7.9-1 1.3-.7.8-1.5 1.6-2.3 2.3s-1.7 1.4-2.7 2c-1.5 1-3.2 1.7-5 2.3.7-.7 1.2-1.6 1.4-2.7.1-.2.1-.5.1-.7.1-.4.1-.8 0-1.3-.1-.4-.2-.8-.3-1.1-.6-1.8-2.2-3.3-4.2-3.8-2.4-.5-4.8.5-6.1 2.4-4.3-1-10.9-8.4-6.6-15.9.5.5 1.4.7 2.6.6 1.9-.1 3.4-1.5 3.4-3.3s-1.5-3.3-3.4-3.3-3.4 1.5-3.4 3.3c0 .9.1 1.6.4 2.1 0 .5-1.2 1.6-1.6 2.4-.5.8-5.4 6.5-1.8 14.4.4.9.9 1.7 1.4 2.4s4.9 7.9 17 6.3h.2c.8-.1 1.6-.2 2.4-.4.1 0 .2-.1.3-.1 1.5-.4 2.9-1 4.3-1.7 1.1-.6 2.1-1.3 3.1-2.1s1.8-1.7 2.6-2.7c1.5-2 2.6-4.3 3.2-6.7.1-.6.3-1.2.3-1.8.1-.6.1-1.2.2-1.8 0-1 0-2.3-.2-3.5z"/><path d="m-429.2-79.9c1.2.7 2.5.2 2.9-1.1.4-1.2-.2-2.6-1.2-3.3-1.2-.8-2.5-.3-2.9 1s.1 2.7 1.2 3.4z"/><path d="m-437.7-86.6c-1.3.1-2.4 1.2-2.6 2.5-.2 1.4.8 2.4 2.2 2.2 1.2-.2 2.3-1.2 2.5-2.5.3-1.3-.7-2.4-2.1-2.2z"/><path d="m-433.9-77.7c.7.1 1.3-.1 1.4-.4s-.5-.7-1.2-.8-1.3.1-1.4.4c0 .3.5.7 1.2.8z"/><path d="m-340.8-34h174.5v99.1h-174.5z" fill="url(#a)"/><path d="m-235.6 12.3c-.4-2.4-1.3-4.7-2.6-6.7s-3-3.8-5-5.1c-1-.7-2.1-1.2-3.2-1.7-1.1-.4-2.2-.8-3.4-1l-.1.2c1.1.3 2.2.7 3.2 1.2s2 1.1 2.9 1.8 1.7 1.5 2.5 2.3c.7.9 1.4 1.8 2 2.8s1 2 1.4 3.1c.2.5.3 1.1.4 1.6s.2 1.1.3 1.7c.1 1.1.2 2.2.1 3.3 0 .6-.1 1.1-.2 1.6s-.2 1.1-.4 1.6-.3 1-.6 1.5c-.2.5-.5 1-.7 1.5-.3.5-.6.9-.9 1.4-.3.4-.7.9-1 1.3-.7.8-1.5 1.6-2.3 2.3s-1.7 1.4-2.7 2c-1.5 1-3.2 1.7-5 2.3.7-.7 1.2-1.6 1.4-2.7.1-.2.1-.5.1-.7.1-.4.1-.8 0-1.3-.1-.4-.2-.8-.3-1.1-.6-1.8-2.2-3.3-4.2-3.8-2.4-.5-4.8.5-6.1 2.4-4.3-1-10.9-8.4-6.6-15.9.5.5 1.4.7 2.6.6 1.9-.1 3.4-1.5 3.4-3.3s-1.5-3.3-3.4-3.3-3.4 1.5-3.4 3.3c0 .9.1 1.6.4 2.1 0 .5-1.2 1.6-1.6 2.4-.5.8-5.4 6.5-1.8 14.4.4.9.9 1.7 1.4 2.4s4.9 7.9 17 6.3h.2c.8-.1 1.6-.2 2.4-.4.1 0 .2-.1.3-.1 1.5-.4 2.9-1 4.3-1.7 1.1-.6 2.1-1.3 3.1-2.1s1.8-1.7 2.6-2.7c1.5-2 2.6-4.3 3.2-6.7.1-.6.3-1.2.3-1.8.1-.6.1-1.2.2-1.8.1-1.1 0-2.3-.2-3.5z"/><path d="m-254.7 18.7c1.2.7 2.5.2 2.9-1.1.4-1.2-.2-2.6-1.2-3.3-1.2-.8-2.5-.3-2.9 1-.4 1.2.1 2.7 1.2 3.4z"/><path d="m-263.2 11.9c-1.3.1-2.4 1.2-2.6 2.5-.2 1.4.8 2.4 2.2 2.2 1.2-.2 2.3-1.2 2.5-2.5.3-1.3-.7-2.3-2.1-2.2z"/><path d="m-259.4 20.9c.7.1 1.3-.1 1.4-.4s-.5-.7-1.2-.8-1.3.1-1.4.4c0 .3.5.6 1.2.8z"/><path d="m-340.2-132.6h174.5v99.1h-174.5z" fill="#ff6c1a"/><path d="m-515.3-34h174.5v99.1h-174.5z" fill="#f4f4f4"/><path d="m-410.1 13.5c-.4-2.4-1.3-4.7-2.6-6.7s-3-3.8-5-5.1c-1-.7-2.1-1.2-3.2-1.7-1.1-.4-2.2-.8-3.4-1l-.1.2c1.1.3 2.2.7 3.2 1.2s2 1.1 2.9 1.8 1.7 1.5 2.5 2.3c.7.9 1.4 1.8 2 2.8s1 2 1.4 3.1c.2.5.3 1.1.4 1.6s.2 1.1.3 1.7c.1 1.1.2 2.2.1 3.3 0 .6-.1 1.1-.2 1.6s-.2 1.1-.4 1.6-.3 1-.6 1.5c-.2.5-.5 1-.7 1.5-.3.5-.6.9-.9 1.4-.3.4-.7.9-1 1.3-.7.8-1.5 1.6-2.3 2.3s-1.7 1.4-2.7 2c-1.5 1-3.2 1.7-5 2.3.7-.7 1.2-1.6 1.4-2.7.1-.2.1-.5.1-.7.1-.4.1-.8 0-1.3-.1-.4-.2-.8-.3-1.1-.6-1.8-2.2-3.3-4.2-3.8-2.4-.5-4.8.5-6.1 2.4-4.3-1-10.9-8.4-6.6-15.9.5.5 1.4.7 2.6.6 1.9-.1 3.4-1.5 3.4-3.3s-1.5-3.3-3.4-3.3-3.4 1.5-3.4 3.3c0 .9.1 1.6.4 2.1 0 .5-1.2 1.6-1.6 2.4-.5.8-5.4 6.5-1.8 14.4.4.9.9 1.7 1.4 2.4s4.9 7.9 17 6.3h.2c.8-.1 1.6-.2 2.4-.4.1 0 .2-.1.3-.1 1.5-.4 2.9-1 4.3-1.7 1.1-.6 2.1-1.3 3.1-2.1s1.8-1.7 2.6-2.7c1.5-2 2.6-4.3 3.2-6.7.1-.6.3-1.2.3-1.8.1-.6.1-1.2.2-1.8 0-1.1 0-2.3-.2-3.5z" fill="url(#b)"/><path d="m-429.2 19.9c1.2.7 2.5.2 2.9-1.1.4-1.2-.2-2.6-1.2-3.3-1.2-.8-2.5-.3-2.9 1-.4 1.2.1 2.7 1.2 3.4z" fill="#6b3bf3"/><path d="m-437.7 13.2c-1.3.1-2.4 1.2-2.6 2.5-.2 1.4.8 2.4 2.2 2.2 1.2-.2 2.3-1.2 2.5-2.5.3-1.3-.7-2.4-2.1-2.2z" fill="#6b3bf3"/><path d="m-433.9 22.1c.7.1 1.3-.1 1.4-.4s-.5-.7-1.2-.8-1.3.1-1.4.4c0 .3.5.7 1.2.8z" fill="#6b3bf3"/><path d="m-235.1-86.4c-.4-2.4-1.3-4.7-2.6-6.7s-3-3.8-5-5.1c-1-.7-2.1-1.2-3.2-1.7-1.1-.4-2.2-.8-3.4-1l-.1.2c1.1.3 2.2.7 3.2 1.2s2 1.1 2.9 1.8 1.7 1.5 2.5 2.3c.7.9 1.4 1.8 2 2.8s1 2 1.4 3.1c.2.5.3 1.1.4 1.6s.2 1.1.3 1.7c.1 1.1.2 2.2.1 3.3 0 .6-.1 1.1-.2 1.6s-.2 1.1-.4 1.6-.3 1-.6 1.5c-.2.5-.5 1-.7 1.5-.3.5-.6.9-.9 1.4-.3.4-.7.9-1 1.3-.7.8-1.5 1.6-2.3 2.3s-1.7 1.4-2.7 2c-1.5 1-3.2 1.7-5 2.3.7-.7 1.2-1.6 1.4-2.7.1-.2.1-.5.1-.7.1-.4.1-.8 0-1.3-.1-.4-.2-.8-.3-1.1-.6-1.8-2.2-3.3-4.2-3.8-2.4-.5-4.8.5-6.1 2.4-4.3-1-10.9-8.4-6.6-15.9.5.5 1.4.7 2.6.6 1.9-.1 3.4-1.5 3.4-3.3s-1.5-3.3-3.4-3.3-3.4 1.5-3.4 3.3c0 .9.1 1.6.4 2.1 0 .5-1.2 1.6-1.6 2.4-.5.8-5.4 6.5-1.8 14.4.4.9.9 1.7 1.4 2.4s4.9 7.9 17 6.3h.2c.8-.1 1.6-.2 2.4-.4.1 0 .2-.1.3-.1 1.5-.4 2.9-1 4.3-1.7 1.1-.6 2.1-1.3 3.1-2.1s1.8-1.7 2.6-2.7c1.5-2 2.6-4.3 3.2-6.7.1-.6.3-1.2.3-1.8.1-.6.1-1.2.2-1.8.1-1.1 0-2.3-.2-3.5z"/><path d="m-254.1-80c1.2.7 2.5.2 2.9-1.1.4-1.2-.2-2.6-1.2-3.3-1.2-.8-2.5-.3-2.9 1-.5 1.2.1 2.7 1.2 3.4z"/><path d="m-262.6-86.8c-1.3.1-2.4 1.2-2.6 2.5-.2 1.4.8 2.4 2.2 2.2 1.2-.2 2.3-1.2 2.5-2.5.3-1.3-.7-2.3-2.1-2.2z"/><path d="m-258.8-77.8c.7.1 1.3-.1 1.4-.4s-.5-.7-1.2-.8-1.3.1-1.4.4c0 .3.5.7 1.2.8z"/><path d="m5 231.4h137.3v137.3h-137.3z"/><path d="m232.8 231.4h137.3v137.3h-137.3z"/><path d="m457.8 231.4h137.3v137.3h-137.3z"/></svg>